<?xml version="1.0" encoding="utf-8"?>
<!-- Generator: Adobe Illustrator 22.0.1, SVG Export Plug-In . SVG Version: 6.00 Build 0)  -->
<svg version="1.1" id="Layer_1" xmlns="http://www.w3.org/2000/svg" xmlns:xlink="http://www.w3.org/1999/xlink" x="0px" y="0px"
	 viewBox="0 0 447.4 156.4" style="enable-background:new 0 0 447.4 156.4;" xml:space="preserve">
<style type="text/css">
	.st0{fill:#6C0E38;}
	.st1{fill:#0A5B74;}
	.st2{fill:#5B5C5C;}
</style>
<g id="XMLID_3214_">
	<path id="XMLID_2267_" class="st0" d="M51,46.4v-7.2c0,0-3.4-0.3-7.5,1.2l4,0.5c0,0,1.5,0.9,1.5,0.9S49,45.3,49,45.3L51,46.4z"/>
	<path id="XMLID_3290_" class="st0" d="M79.1,6.9H64.8l0,1.5c0,3.3,0,7.2,0,11.5v0.7c0,12.3,0,27.6-0.1,36.9c0,4-2,7.9-5.3,10.6
		c-3.4,2.8-7.6,3.9-11.7,3.1c-6.4-1.2-10.4-4.9-11.9-10.9c-1.5-5.9,0.2-10.9,4.9-15c2-1.7,4.5-2.8,7.2-3.1l0,2.9c0,3.3,0,6.6,0,10
		c0,2.2-1.8,4.3-4,4.7c-0.2,0-0.4,0.1-0.6,0.1l0,0h-5c0,0-0.1,2.3,2.5,5.1c0.6,0.7,1.4,1.4,2.2,1.9c0,0,0,0,0.1,0.1l0,0
		c2.8,1.9,6.4,2.7,10,1.8c5.4-1.3,9.4-6.3,9.4-11.9c0-4.1,0-8.1,0-12.2l0-17l-5.2,0c-2.6,0-5.1,0-7.6,0
		c-15.2,0.2-28.1,12.7-28.5,27.9c-0.3,9.2,3.5,17.8,10.5,23.6c5.2,4.3,11.8,6.7,18.5,6.7c2.1,0,4.3-0.2,6.4-0.7
		c13.1-2.9,22.7-14.7,22.8-28.1c0-5.6,0-13.4,0-21.5c0-9.9,0-20.2,0-27.2L79.1,6.9z M76.1,35.7c0,8,0,15.8,0,21.5
		c0,12-8.6,22.6-20.4,25.2c-8,1.7-16.1-0.2-22.3-5.4C27.1,71.7,23.7,64,24,55.8c0.4-13.6,11.9-24.8,25.5-25c1.4,0,2.8,0,4.2,0l5.6,0
		l0,14c0,4.1,0,8.1,0,12.2c0,4.2-3,8-7,8.9c-3.6,0.8-7-0.3-9.3-2.9c0.5,0,1,0,1.5-0.1c3.6-0.6,6.5-4,6.5-7.7c0-3.3,0-6.6,0-9.9l0-4
		c0-0.2,0-0.4-0.1-0.6l-0.3-1.6l-1.4,0c-4.1,0.1-7.6,1.5-10.6,4c-5.7,4.9-7.7,11.1-5.9,18.1c1.8,7.2,6.8,11.7,14.3,13.1
		c4.9,0.9,10.1-0.5,14.2-3.8c4-3.3,6.3-8,6.4-13c0.1-9.3,0.1-24.5,0.1-36.8l0-10.9h8.3C76.1,16.9,76.1,26.4,76.1,35.7z"/>
	<path id="XMLID_3314_" class="st0" d="M98.5,116.9v7.2c0,0,3.4,0.3,7.5-1.2l-4-0.5c0,0-1.5-0.9-1.5-0.9c0,0,0.1-3.5,0.1-3.5
		L98.5,116.9z"/>
	<path id="XMLID_3311_" class="st0" d="M70.4,156.4h14.4l0-1.5c0-3.3,0-7.2,0-11.5v-0.7c0-12.3,0-27.6,0.1-36.9c0-4,2-7.9,5.3-10.6
		c3.4-2.8,7.6-3.9,11.7-3.1c6.4,1.2,10.4,4.9,11.9,10.9c1.5,5.9-0.2,10.9-4.9,15c-2,1.7-4.5,2.8-7.2,3.1l0-2.9c0-3.3,0-6.6,0-10
		c0-2.2,1.8-4.3,4-4.7c0.2,0,0.4-0.1,0.6-0.1l0,0h5c0,0,0.1-2.3-2.5-5.1c-0.6-0.7-1.4-1.4-2.2-1.9c0,0,0,0-0.1-0.1l0,0
		c-2.8-1.9-6.4-2.7-10-1.8c-5.4,1.3-9.4,6.3-9.4,11.9c0,4.1,0,8.1,0,12.2l0,17l5.2,0c2.6,0,5.1,0,7.6,0
		c15.2-0.2,28.1-12.7,28.5-27.9c0.3-9.2-3.5-17.8-10.5-23.6c-5.2-4.3-11.8-6.7-18.5-6.7c-2.1,0-4.3,0.2-6.4,0.7
		C80,80.9,70.5,92.7,70.4,106.1c0,5.6,0,13.4,0,21.5c0,9.9,0,20.2,0,27.2L70.4,156.4z M73.5,127.6c0-8,0-15.8,0-21.5
		c0-12,8.6-22.6,20.4-25.2c8-1.7,16.1,0.2,22.3,5.4c6.2,5.2,9.7,12.9,9.4,21.1c-0.4,13.6-11.9,24.8-25.5,25c-1.4,0-2.8,0-4.2,0
		l-5.6,0l0-14c0-4.1,0-8.1,0-12.2c0-4.2,3-8,7-8.9c3.6-0.8,7,0.3,9.3,2.9c-0.5,0-1,0-1.5,0.1c-3.6,0.6-6.5,4-6.5,7.7
		c0,3.3,0,6.6,0,9.9l0,4c0,0.2,0,0.4,0.1,0.6l0.3,1.6l1.4,0c4.1-0.1,7.6-1.5,10.6-4c5.7-4.9,7.7-11.1,5.9-18.1
		c-1.8-7.2-6.8-11.7-14.3-13.1c-4.9-0.9-10.1,0.5-14.2,3.8c-4,3.3-6.3,8-6.4,13c-0.1,9.3-0.1,24.5-0.1,36.8l0,10.9h-8.3
		C73.5,146.4,73.5,136.9,73.5,127.6z"/>
	<g id="XMLID_2236_">
		<path id="XMLID_2238_" class="st1" d="M110.7,82.9c-4.3,0-8.2,0-11.4,0c-9.7,0-18.5-5.6-22.8-14c-0.5,1.1-1.1,2.2-1.7,3.2
			c5.1,8.3,14.4,13.8,24.5,13.8c4.4,0,10.2,0,16.3,0C114.1,84.7,112.5,83.7,110.7,82.9z"/>
		<path id="XMLID_3291_" class="st1" d="M148,71.6c-3.3,0-7.2,0-11.5,0h-0.7c-12.3,0-27.6,0-36.9-0.1c-4,0-7.9-2-10.6-5.3
			c-2.8-3.4-3.9-7.6-3.1-11.7c1.2-6.4,4.9-10.4,10.9-11.9c5.9-1.5,10.9,0.2,15,4.9c1.7,2,2.8,4.5,3.1,7.2l-2.9,0c-3.3,0-6.6,0-10,0
			c-2.2,0-4.3-1.8-4.7-4c0-0.2-0.1-0.4-0.1-0.6l0,0v-5c0,0-2.3-0.1-5.1,2.5c-0.7,0.6-1.4,1.4-1.9,2.2c0,0,0,0-0.1,0.1l0,0
			c-1.9,2.8-2.7,6.4-1.8,10c1.3,5.4,6.3,9.4,11.9,9.4c4.1,0,8.1,0,12.2,0l17,0l0-5.2c0-2.6,0-5.1,0-7.6
			c-0.2-15.2-12.7-28.1-27.9-28.5c-9.2-0.3-17.8,3.5-23.6,10.5c-4.3,5.2-6.7,11.8-6.7,18.5c0,2.1,0.2,4.3,0.7,6.4
			c0.4,2,1.1,3.9,1.9,5.7c0.7-1.3,1.2-2.6,1.7-4c-0.2-0.8-0.5-1.5-0.6-2.3c-1.7-8,0.2-16.1,5.4-22.3c5.2-6.2,12.9-9.7,21.1-9.4
			c13.6,0.4,24.8,11.9,25,25.5c0,1.4,0,2.8,0,4.2l0,5.6l-14,0c-4.1,0-8.1,0-12.2,0c-4.2,0-8-3-8.9-7c-0.8-3.6,0.3-7,2.9-9.3
			c0,0.5,0,1,0.1,1.5c0.6,3.6,4,6.5,7.7,6.5c3.3,0,6.6,0,9.9,0l4,0c0.2,0,0.4,0,0.6-0.1l1.6-0.3l0-1.4c-0.1-4.1-1.5-7.6-4-10.6
			c-4.9-5.7-11.1-7.7-18.1-5.9C88,41.5,83.5,46.5,82.1,54c-0.9,4.9,0.5,10.1,3.8,14.2c3.3,4,8,6.3,13,6.4c9.3,0.1,24.5,0.1,36.8,0.1
			l10.9,0v8.3c-6.9,0-16.4,0-25.7,0c-1.4,0-2.8,0-4.1,0c0.5,0.4,1,0.7,1.5,1.1c0.7,0.6,1.4,1.3,2.1,1.9c0.2,0,0.4,0,0.6,0
			c9.9,0,20.2,0,27.2,0l1.5,0V71.6L148,71.6z"/>
	</g>
	<g id="XMLID_2239_">
		<path id="XMLID_2240_" class="st1" d="M50.2,80.4c9.7,0,18.5,5.6,22.8,14c0.5-1.1,1.1-2.2,1.7-3.2c-5.2-8.3-14.4-13.8-24.5-13.8
			c-4.4,0-10.2,0-16.3,0c1.5,1.2,3.2,2.2,4.9,3.1C43.1,80.4,47,80.4,50.2,80.4z"/>
		<path id="XMLID_3293_" class="st1" d="M76.4,94.4c-0.7,1.3-1.2,2.6-1.7,4c0.2,0.8,0.5,1.5,0.6,2.3c1.7,8-0.2,16.1-5.4,22.3
			c-5.2,6.2-12.9,9.7-21.1,9.4c-13.6-0.4-24.8-11.9-25-25.5c0-1.4,0-2.8,0-4.2l0-5.6l14,0c4.1,0,8.1,0,12.2,0c4.2,0,8,3,8.9,7
			c0.8,3.6-0.3,7-2.9,9.3c0-0.5,0-1-0.1-1.5c-0.6-3.6-4-6.5-7.7-6.5c-3.3,0-6.6,0-9.9,0l-4,0c-0.2,0-0.4,0-0.6,0.1l-1.6,0.3l0,1.4
			c0.1,4.1,1.5,7.6,4,10.6c4.9,5.7,11.1,7.7,18.1,5.9c7.2-1.8,11.7-6.8,13.1-14.3c0.9-4.9-0.5-10.1-3.8-14.2c-3.3-4-8-6.3-13-6.4
			c-9.3-0.1-24.5-0.1-36.8-0.1L3,88.6v-8.3c6.9,0,16.4,0,25.7,0c1.4,0,2.8,0,4.1,0c-0.5-0.4-1-0.7-1.4-1.1c-0.7-0.6-1.4-1.3-2.1-1.9
			c-0.2,0-0.4,0-0.6,0c-9.9,0-20.2,0-27.2,0l-1.5,0v14.4l1.5,0c3.3,0,7.2,0,11.5,0h0.7c12.3,0,27.6,0,36.9,0.1c4,0,7.9,2,10.6,5.3
			c2.8,3.4,3.9,7.6,3.1,11.7c-1.2,6.4-4.9,10.4-10.9,11.9c-5.9,1.5-10.9-0.2-15-4.9c-1.7-2-2.8-4.5-3.1-7.2l2.9,0c3.3,0,6.6,0,10,0
			c2.2,0,4.3,1.8,4.7,4c0,0.2,0.1,0.4,0.1,0.6l0,0v5c0,0,2.3,0.1,5.1-2.5c0.7-0.6,1.4-1.4,1.9-2.2c0,0,0,0,0.1-0.1l0,0
			c1.9-2.8,2.7-6.4,1.8-10c-1.3-5.4-6.3-9.4-11.9-9.4c-4.1,0-8.1,0-12.2,0l-17,0l0,5.2c0,2.6,0,5.1,0,7.6
			c0.2,15.2,12.7,28.1,27.9,28.5c9.2,0.3,17.8-3.5,23.6-10.5c4.3-5.2,6.7-11.8,6.7-18.5c0-2.1-0.2-4.3-0.7-6.4
			C77.9,98.1,77.3,96.2,76.4,94.4z"/>
	</g>
</g>
<g id="XMLID_8_">
	<g id="XMLID_3401_">
		<g id="XMLID_618_">
			<path id="XMLID_689_" class="st2" d="M171,146.6c0-0.4,0-0.7,0-1c0-0.3,0-0.6,0-0.9c0-0.3,0-0.6,0-0.9c0-0.3,0-0.6,0-0.9
				c0.2,0,0.3,0,0.5,0c0.2,0,0.4,0,0.6,0c0.3,0,0.6,0,1,0c0.4,0,0.8,0,1.4,0c0.8,0,1.4,0.1,2.1,0.2c0.6,0.1,1.2,0.4,1.6,0.7
				c0.5,0.3,0.8,0.8,1.1,1.3c0.2,0.6,0.4,1.3,0.4,2.1c0,0.7-0.1,1.4-0.4,2c-0.2,0.6-0.6,1.1-1,1.5c-0.4,0.4-0.9,0.8-1.5,1
				c-0.6,0.2-1.1,0.3-1.8,0.3c-0.7,0-1.2,0-1.7,0s-0.9,0-1.2,0c-0.2,0-0.4,0-0.6,0c-0.2,0-0.3,0-0.5,0c0-0.3,0-0.6,0-0.9
				c0-0.3,0-0.6,0-0.9c0-0.3,0-0.6,0-0.9c0-0.3,0-0.7,0-1V146.6z M173,144.9v5.3c0,0.3,0,0.5,0,0.7c0,0.2,0,0.3,0,0.4
				c0.1,0,0.3,0,0.5,0c0.2,0,0.4,0,0.7,0c0.5,0,0.9-0.1,1.3-0.3s0.7-0.4,1-0.8c0.3-0.3,0.5-0.8,0.6-1.3c0.1-0.5,0.2-1.1,0.2-1.8
				c0-0.5-0.1-1-0.2-1.5c-0.1-0.4-0.3-0.8-0.6-1.1c-0.3-0.3-0.6-0.5-1-0.7c-0.4-0.2-0.8-0.2-1.2-0.2c-0.3,0-0.6,0-0.8,0
				c-0.2,0-0.4,0-0.6,0c0,0.1,0,0.2,0,0.4C173,144.4,173,144.6,173,144.9z"/>
			<path id="XMLID_687_" class="st2" d="M182.1,146.6c0-0.4,0-0.7,0-1c0-0.3,0-0.6,0-0.9c0-0.3,0-0.6,0-0.9c0-0.3,0-0.6,0-0.9
				c0.2,0,0.3,0,0.5,0c0.2,0,0.4,0,0.6,0c0.2,0,0.4,0,0.6,0c0.2,0,0.3,0,0.5,0c0,0.3,0,0.6,0,0.9c0,0.3,0,0.6,0,0.9
				c0,0.3,0,0.6,0,0.9c0,0.3,0,0.7,0,1v1.8c0,0.4,0,0.7,0,1c0,0.3,0,0.6,0,0.9c0,0.3,0,0.6,0,0.9c0,0.3,0,0.6,0,0.9
				c-0.2,0-0.3,0-0.5,0c-0.2,0-0.4,0-0.6,0c-0.2,0-0.4,0-0.6,0c-0.2,0-0.3,0-0.5,0c0-0.3,0-0.6,0-0.9c0-0.3,0-0.6,0-0.9
				c0-0.3,0-0.6,0-0.9c0-0.3,0-0.7,0-1V146.6z"/>
			<path id="XMLID_685_" class="st2" d="M191.1,144.7c-0.3-0.8-0.8-1.1-1.6-1.1c-0.4,0-0.7,0.1-1,0.4c-0.3,0.2-0.4,0.5-0.4,0.8
				c0,0.3,0.1,0.6,0.3,0.8c0.2,0.2,0.4,0.4,0.7,0.6c0.3,0.2,0.6,0.3,1,0.5c0.3,0.2,0.7,0.3,1,0.6c0.3,0.2,0.5,0.5,0.7,0.8
				c0.2,0.3,0.3,0.7,0.3,1.2c0,0.4-0.1,0.8-0.3,1.2c-0.2,0.4-0.4,0.7-0.7,0.9c-0.3,0.3-0.7,0.5-1.1,0.6c-0.4,0.1-0.9,0.2-1.4,0.2
				c-0.5,0-0.9-0.1-1.3-0.2c-0.4-0.1-0.7-0.2-0.8-0.4c0.1-0.3,0.2-0.6,0.2-0.9c0.1-0.3,0.1-0.5,0.2-0.8h0.3c0,0.2,0.1,0.4,0.2,0.5
				c0.1,0.2,0.2,0.3,0.4,0.5c0.2,0.1,0.3,0.2,0.5,0.3c0.2,0.1,0.4,0.1,0.7,0.1c0.5,0,0.9-0.1,1.2-0.4c0.3-0.3,0.4-0.6,0.4-1
				c0-0.3-0.1-0.6-0.3-0.8c-0.2-0.2-0.4-0.4-0.7-0.6c-0.3-0.2-0.6-0.3-1-0.5c-0.3-0.2-0.7-0.3-1-0.6c-0.3-0.2-0.5-0.5-0.7-0.8
				c-0.2-0.3-0.3-0.7-0.3-1.2c0-0.5,0.1-0.9,0.2-1.2s0.4-0.7,0.7-0.9c0.3-0.2,0.6-0.4,0.9-0.5c0.4-0.1,0.7-0.2,1.1-0.2
				c0.5,0,0.9,0.1,1.3,0.2c0.4,0.1,0.7,0.3,0.9,0.5c-0.1,0.2-0.2,0.4-0.2,0.6c-0.1,0.2-0.1,0.4-0.2,0.7H191.1z"/>
			<path id="XMLID_683_" class="st2" d="M201.7,150.6c-0.1,0.2-0.1,0.4-0.2,0.6c-0.1,0.2-0.1,0.4-0.1,0.6c-0.4,0.2-0.8,0.3-1.2,0.4
				c-0.5,0.1-1,0.2-1.5,0.2c-0.8,0-1.5-0.1-2.1-0.3c-0.6-0.2-1.1-0.5-1.5-0.9c-0.4-0.4-0.7-0.9-1-1.4c-0.2-0.5-0.3-1.1-0.3-1.7
				c0-0.9,0.1-1.7,0.4-2.3c0.3-0.6,0.7-1.2,1.2-1.6c0.5-0.4,1-0.7,1.7-0.9c0.6-0.2,1.3-0.3,2-0.3c0.2,0,0.5,0,0.7,0
				c0.3,0,0.5,0.1,0.7,0.1c0.2,0.1,0.5,0.1,0.7,0.2c0.2,0.1,0.4,0.2,0.5,0.3c-0.1,0.2-0.2,0.4-0.2,0.7c0,0.2-0.1,0.5-0.1,0.7h-0.2
				c-0.3-0.4-0.7-0.7-1-0.9c-0.4-0.2-0.8-0.3-1.2-0.3c-0.3,0-0.7,0.1-1.1,0.2c-0.4,0.2-0.7,0.4-1,0.7c-0.3,0.3-0.5,0.7-0.7,1.3
				s-0.3,1.1-0.3,1.8c0,0.7,0.1,1.3,0.3,1.7c0.2,0.5,0.4,0.9,0.7,1.2c0.3,0.3,0.6,0.5,1,0.7c0.4,0.1,0.8,0.2,1.1,0.2
				c0.2,0,0.4,0,0.6-0.1c0.2-0.1,0.4-0.1,0.7-0.2c0.2-0.1,0.4-0.2,0.6-0.3c0.2-0.1,0.4-0.3,0.5-0.4L201.7,150.6z"/>
			<path id="XMLID_680_" class="st2" d="M203.3,147.5c0-0.7,0.1-1.3,0.4-1.8c0.2-0.6,0.6-1.1,1-1.5c0.4-0.4,1-0.8,1.6-1
				c0.6-0.2,1.3-0.4,2.1-0.4c0.7,0,1.4,0.1,2,0.3c0.6,0.2,1.1,0.5,1.6,0.9c0.4,0.4,0.8,0.9,1.1,1.5c0.3,0.6,0.4,1.3,0.4,2.1
				c0,0.6-0.1,1.3-0.4,1.8c-0.3,0.6-0.6,1.1-1,1.5c-0.4,0.4-1,0.8-1.6,1c-0.6,0.2-1.3,0.4-2,0.4c-0.7,0-1.4-0.1-2-0.3
				c-0.6-0.2-1.1-0.5-1.6-0.9c-0.5-0.4-0.8-0.9-1.1-1.5C203.5,149.1,203.3,148.4,203.3,147.5z M211.3,147.2c0-0.6-0.1-1.1-0.2-1.5
				c-0.1-0.5-0.3-0.8-0.6-1.2s-0.6-0.6-0.9-0.7c-0.4-0.2-0.7-0.3-1.2-0.3c-0.4,0-0.9,0.1-1.2,0.3c-0.4,0.2-0.7,0.5-0.9,0.9
				c-0.2,0.4-0.4,0.8-0.6,1.3c-0.1,0.5-0.2,1-0.2,1.6c0,0.7,0.1,1.3,0.2,1.8s0.4,0.9,0.6,1.2c0.3,0.3,0.6,0.5,0.9,0.6
				c0.3,0.1,0.7,0.2,1.1,0.2c0.4,0,0.8-0.1,1.1-0.3c0.4-0.2,0.7-0.4,1-0.8c0.3-0.3,0.5-0.8,0.6-1.3
				C211.2,148.6,211.3,148,211.3,147.2z"/>
			<path id="XMLID_678_" class="st2" d="M218.9,149.6c0.5-1.1,0.9-2.2,1.3-3.4c0.4-1.1,0.8-2.2,1.2-3.3c0.2,0,0.4,0.1,0.6,0.1
				c0.2,0,0.4,0,0.6-0.1c-0.2,0.5-0.5,1.1-0.8,1.9c-0.3,0.7-0.6,1.5-1,2.3s-0.7,1.7-1,2.5c-0.3,0.9-0.6,1.7-0.9,2.4
				c-0.1,0-0.2,0-0.3,0s-0.2,0-0.3,0c-0.1,0-0.2,0-0.3,0c-0.1,0-0.2,0-0.3,0c-0.1-0.4-0.3-0.8-0.5-1.3c-0.2-0.5-0.4-1-0.6-1.6
				c-0.2-0.6-0.4-1.1-0.7-1.7c-0.2-0.6-0.5-1.2-0.7-1.7c-0.2-0.6-0.4-1.1-0.6-1.5c-0.2-0.5-0.4-0.9-0.5-1.2c0.2,0,0.4,0,0.6,0
				c0.2,0,0.4,0,0.6,0c0.2,0,0.4,0,0.6,0c0.2,0,0.4,0,0.6,0c0.1,0.5,0.3,1,0.5,1.6c0.2,0.5,0.4,1.1,0.6,1.7c0.2,0.6,0.4,1.1,0.6,1.7
				C218.5,148.5,218.7,149,218.9,149.6z"/>
			<path id="XMLID_676_" class="st2" d="M224.5,146.6c0-0.4,0-0.7,0-1c0-0.3,0-0.6,0-0.9c0-0.3,0-0.6,0-0.9c0-0.3,0-0.6-0.1-0.9
				c0.4,0,0.8,0,1.2,0c0.4,0,0.8,0,1.2,0c0.3,0,0.6,0,0.9,0c0.3,0,0.6,0,0.8,0c0.2,0,0.5,0,0.6,0c0.2,0,0.3,0,0.4,0
				c0,0.1,0,0.2,0,0.2c0,0.1,0,0.2,0,0.3c0,0.1,0,0.3,0,0.3c0,0.1,0,0.2,0,0.3c-0.3,0-0.5,0-0.8-0.1c-0.3,0-0.6,0-0.9-0.1
				s-0.5,0-0.8,0c-0.2,0-0.4,0-0.5,0c0,0.5-0.1,1-0.1,1.4c0,0.5,0,1,0,1.4c0.6,0,1.1,0,1.6,0c0.5,0,1,0,1.5-0.1c0,0.2,0,0.3-0.1,0.3
				c0,0.1,0,0.2,0,0.3c0,0.1,0,0.1,0,0.2c0,0.1,0,0.2,0,0.3c-1-0.1-2-0.1-3-0.1c0,0.3,0,0.6,0,0.9c0,0.3,0,0.6,0,0.9
				c0,0.6,0,1.1,0,1.7c0.5,0,1,0,1.5,0c0.5,0,1-0.1,1.5-0.1c0,0.1,0,0.2,0,0.3c0,0.1,0,0.2,0,0.3s0,0.3,0,0.3c0,0.1,0,0.2,0,0.2
				c-0.2,0-0.5,0-0.9,0c-0.3,0-0.8,0-1.4,0c-0.5,0-1,0-1.3,0c-0.3,0-0.6,0-0.8,0c-0.2,0-0.3,0-0.4,0c-0.1,0-0.2,0-0.3,0
				c0-0.3,0-0.6,0.1-0.9c0-0.3,0-0.6,0-0.9c0-0.3,0-0.6,0-0.9c0-0.3,0-0.7,0-1V146.6z"/>
			<path id="XMLID_673_" class="st2" d="M234,147.9h-0.1v0.5c0,0.4,0,0.7,0,1c0,0.3,0,0.6,0,0.9c0,0.3,0,0.6,0,0.9
				c0,0.3,0,0.6,0.1,0.9c-0.2,0-0.3,0-0.5,0c-0.2,0-0.4,0-0.6,0c-0.2,0-0.4,0-0.6,0c-0.2,0-0.3,0-0.5,0c0-0.3,0-0.6,0-0.9
				c0-0.3,0-0.6,0-0.9c0-0.3,0-0.6,0-0.9c0-0.3,0-0.7,0-1v-1.8c0-0.4,0-0.7,0-1c0-0.3,0-0.6,0-0.9c0-0.3,0-0.6,0-0.9
				c0-0.3,0-0.6,0-0.9c0.2,0,0.3,0,0.5,0c0.2,0,0.4,0,0.6,0c0.2,0,0.5,0,0.8,0c0.3,0,0.7,0,1.1,0c0.3,0,0.6,0,0.9,0
				c0.2,0,0.4,0,0.6,0.1c0.2,0,0.3,0.1,0.5,0.1c0.1,0.1,0.3,0.1,0.4,0.2c0.3,0.2,0.5,0.4,0.6,0.7c0.2,0.3,0.2,0.6,0.2,1
				c0,0.7-0.2,1.2-0.5,1.6c-0.4,0.4-0.9,0.7-1.5,0.9c0.4,0.8,0.9,1.5,1.4,2.3l1.5,2.3c-0.2,0-0.4,0-0.6,0c-0.2,0-0.4,0-0.6,0
				s-0.4,0-0.6,0c-0.2,0-0.4,0-0.6,0L234,147.9z M236,145.4c0-0.4,0-0.7-0.1-0.9c-0.1-0.2-0.2-0.4-0.4-0.5c-0.2-0.1-0.4-0.2-0.6-0.2
				c-0.3,0-0.6-0.1-0.9-0.1c0,1.2-0.1,2.4-0.1,3.6c0.1,0,0.1,0,0.2,0c0,0,0.1,0,0.1,0c0.6,0,1-0.2,1.3-0.5
				C235.8,146.6,236,146.1,236,145.4z"/>
			<path id="XMLID_671_" class="st2" d="M244.7,145.1c0-0.3,0-0.5,0-0.7c0-0.2,0-0.4,0-0.5c-0.1,0-0.3,0-0.5,0c-0.2,0-0.4,0-0.6,0
				c-0.2,0-0.4,0-0.7,0.1c-0.2,0-0.4,0-0.6,0.1c0-0.1,0-0.2,0-0.3c0-0.1,0-0.2,0-0.3c0-0.1,0-0.2,0-0.3c0-0.1,0-0.2,0-0.3
				c0.3,0,0.6,0,0.8,0c0.2,0,0.5,0,0.7,0c0.3,0,0.5,0,0.8,0c0.3,0,0.7,0,1.1,0c0.4,0,0.8,0,1.1,0c0.3,0,0.6,0,0.8,0
				c0.2,0,0.5,0,0.7,0c0.2,0,0.5,0,0.8,0c0,0.1,0,0.2-0.1,0.3c0,0.1,0,0.2,0,0.3c0,0.1,0,0.2,0,0.3l0.1,0.3c-0.2,0-0.4,0-0.6-0.1
				c-0.2,0-0.4,0-0.7-0.1s-0.4,0-0.6,0c-0.2,0-0.4,0-0.5,0c0,0.1,0,0.2,0,0.5v4c0,0.4,0,0.7,0,1c0,0.3,0,0.6,0,0.9
				c0,0.3,0,0.6,0,0.9c0,0.3,0,0.6,0,0.9c-0.1,0-0.3,0-0.5,0c-0.2,0-0.4,0-0.6,0c-0.2,0-0.4,0-0.6,0c-0.2,0-0.3,0-0.5,0
				c0-0.3,0-0.6,0-0.9c0-0.3,0-0.6,0-0.9c0-0.3,0-0.6,0-0.9c0-0.3,0-0.7,0-1V145.1z"/>
			<path id="XMLID_669_" class="st2" d="M257.2,147.7l-1,0c-0.3,0-0.7,0-1,0c-0.3,0-0.7,0-1,0c-0.3,0-0.7,0-1,0v0.8c0,0.4,0,0.7,0,1
				c0,0.3,0,0.6,0,0.9c0,0.3,0,0.6,0,0.9c0,0.3,0,0.6,0.1,0.9c-0.2,0-0.3,0-0.5,0c-0.2,0-0.4,0-0.6,0c-0.2,0-0.4,0-0.6,0
				c-0.2,0-0.3,0-0.5,0c0-0.3,0-0.6,0-0.9c0-0.3,0-0.6,0-0.9c0-0.3,0-0.6,0-0.9c0-0.3,0-0.7,0-1v-1.8c0-0.4,0-0.7,0-1
				c0-0.3,0-0.6,0-0.9c0-0.3,0-0.6,0-0.9c0-0.3,0-0.6,0-0.9c0.2,0,0.3,0,0.5,0c0.2,0,0.4,0,0.6,0c0.2,0,0.4,0,0.6,0
				c0.2,0,0.3,0,0.5,0c0,0.6-0.1,1.1-0.1,1.7c0,0.6,0,1.2,0,1.9c0.2,0,0.5,0,0.8,0c0.3,0,0.7,0,1.2,0c0.5,0,0.9,0,1.2,0
				c0.3,0,0.6,0,0.8,0c0-0.7,0-1.4,0-1.9c0-0.6,0-1.1-0.1-1.7c0.1,0,0.3,0,0.5,0c0.2,0,0.4,0,0.6,0c0.2,0,0.4,0,0.6,0
				c0.2,0,0.3,0,0.5,0c0,0.3,0,0.6,0,0.9c0,0.3,0,0.6,0,0.9c0,0.3,0,0.6,0,0.9c0,0.3,0,0.7,0,1v1.8c0,0.4,0,0.7,0,1
				c0,0.3,0,0.6,0,0.9c0,0.3,0,0.6,0,0.9c0,0.3,0,0.6,0,0.9c-0.1,0-0.3,0-0.5,0c-0.2,0-0.4,0-0.6,0c-0.2,0-0.4,0-0.6,0
				c-0.2,0-0.3,0-0.5,0c0-0.3,0-0.6,0-0.9c0-0.3,0-0.6,0-0.9c0-0.3,0-0.6,0-0.9c0-0.3,0-0.7,0-1V147.7z"/>
			<path id="XMLID_667_" class="st2" d="M262.1,146.6c0-0.4,0-0.7,0-1c0-0.3,0-0.6,0-0.9c0-0.3,0-0.6,0-0.9c0-0.3,0-0.6-0.1-0.9
				c0.4,0,0.8,0,1.2,0c0.4,0,0.8,0,1.2,0c0.3,0,0.6,0,0.9,0c0.3,0,0.6,0,0.8,0c0.2,0,0.5,0,0.6,0c0.2,0,0.3,0,0.4,0
				c0,0.1,0,0.2,0,0.2c0,0.1,0,0.2,0,0.3c0,0.1,0,0.3,0,0.3c0,0.1,0,0.2,0,0.3c-0.3,0-0.5,0-0.8-0.1c-0.3,0-0.6,0-0.9-0.1
				s-0.5,0-0.8,0c-0.2,0-0.4,0-0.5,0c0,0.5-0.1,1-0.1,1.4c0,0.5,0,1,0,1.4c0.6,0,1.1,0,1.6,0c0.5,0,0.9,0,1.5-0.1
				c0,0.2,0,0.3-0.1,0.3c0,0.1,0,0.2,0,0.3c0,0.1,0,0.1,0,0.2c0,0.1,0,0.2,0,0.3c-1-0.1-2-0.1-3-0.1c0,0.3,0,0.6,0,0.9
				c0,0.3,0,0.6,0,0.9c0,0.6,0,1.1,0,1.7c0.5,0,1,0,1.5,0c0.5,0,1-0.1,1.5-0.1c0,0.1,0,0.2,0,0.3c0,0.1,0,0.2,0,0.3s0,0.3,0,0.3
				c0,0.1,0,0.2,0,0.2c-0.2,0-0.5,0-0.9,0c-0.3,0-0.8,0-1.4,0c-0.5,0-1,0-1.3,0c-0.3,0-0.6,0-0.8,0c-0.2,0-0.3,0-0.4,0s-0.2,0-0.3,0
				c0-0.3,0-0.6,0.1-0.9c0-0.3,0-0.6,0-0.9c0-0.3,0-0.6,0-0.9c0-0.3,0-0.7,0-1V146.6z"/>
			<path id="XMLID_665_" class="st2" d="M275.7,149.6c0.5-1.1,0.9-2.2,1.3-3.4c0.4-1.1,0.8-2.2,1.2-3.3c0.2,0,0.4,0.1,0.6,0.1
				s0.4,0,0.6-0.1c-0.2,0.5-0.5,1.1-0.8,1.9c-0.3,0.7-0.6,1.5-1,2.3c-0.3,0.8-0.7,1.7-1,2.5c-0.3,0.9-0.6,1.7-0.9,2.4
				c-0.1,0-0.2,0-0.3,0c-0.1,0-0.2,0-0.3,0c-0.1,0-0.2,0-0.3,0c-0.1,0-0.2,0-0.3,0c-0.1-0.4-0.3-0.8-0.5-1.3c-0.2-0.5-0.4-1-0.6-1.6
				c-0.2-0.6-0.4-1.1-0.7-1.7c-0.2-0.6-0.5-1.2-0.7-1.7c-0.2-0.6-0.4-1.1-0.6-1.5c-0.2-0.5-0.4-0.9-0.5-1.2c0.2,0,0.4,0,0.6,0
				c0.2,0,0.4,0,0.6,0c0.2,0,0.4,0,0.6,0c0.2,0,0.4,0,0.6,0c0.1,0.5,0.3,1,0.5,1.6c0.2,0.5,0.4,1.1,0.6,1.7c0.2,0.6,0.4,1.1,0.6,1.7
				C275.3,148.5,275.5,149,275.7,149.6z"/>
			<path id="XMLID_663_" class="st2" d="M281.5,146.6c0-0.4,0-0.7,0-1c0-0.3,0-0.6,0-0.9c0-0.3,0-0.6,0-0.9c0-0.3,0-0.6,0-0.9
				c0.2,0,0.3,0,0.5,0c0.2,0,0.4,0,0.6,0c0.2,0,0.4,0,0.6,0c0.2,0,0.3,0,0.5,0c0,0.3,0,0.6,0,0.9c0,0.3,0,0.6,0,0.9
				c0,0.3,0,0.6,0,0.9c0,0.3,0,0.7,0,1v1.8c0,0.4,0,0.7,0,1c0,0.3,0,0.6,0,0.9c0,0.3,0,0.6,0,0.9c0,0.3,0,0.6,0,0.9
				c-0.2,0-0.3,0-0.5,0c-0.2,0-0.4,0-0.6,0c-0.2,0-0.4,0-0.6,0c-0.2,0-0.3,0-0.5,0c0-0.3,0-0.6,0-0.9c0-0.3,0-0.6,0-0.9
				c0-0.3,0-0.6,0-0.9c0-0.3,0-0.7,0-1V146.6z"/>
			<path id="XMLID_659_" class="st2" d="M286.5,146.6c0-0.4,0-0.7,0-1c0-0.3,0-0.6,0-0.9c0-0.3,0-0.6,0-0.9c0-0.3,0-0.6,0-0.9
				c0.2,0,0.3,0,0.5,0c0.2,0,0.4,0,0.6,0c0.4,0,0.8,0,1.2,0c0.4,0,0.8,0,1.2,0c0.4,0,0.8,0,1.1,0.1c0.3,0.1,0.6,0.2,0.8,0.4
				c0.2,0.2,0.4,0.4,0.5,0.6c0.1,0.3,0.2,0.6,0.2,0.9c0,0.4-0.1,0.7-0.2,0.9c-0.1,0.3-0.3,0.5-0.5,0.6c-0.2,0.2-0.5,0.3-0.7,0.4
				c-0.3,0.1-0.5,0.2-0.7,0.2v0c0.2,0,0.4,0.1,0.7,0.1c0.3,0.1,0.5,0.2,0.8,0.4c0.3,0.2,0.5,0.4,0.6,0.7c0.2,0.3,0.3,0.6,0.3,1
				c0,0.5-0.1,0.9-0.3,1.2c-0.2,0.3-0.4,0.6-0.7,0.8c-0.3,0.2-0.6,0.4-1,0.5c-0.4,0.1-0.8,0.1-1.2,0.1c-0.4,0-0.7,0-1,0s-0.6,0-1,0
				c-0.2,0-0.5,0-0.7,0c-0.2,0-0.4,0-0.6,0c0-0.3,0-0.6,0-0.9c0-0.3,0-0.6,0-0.9c0-0.3,0-0.6,0-0.9c0-0.3,0-0.7,0-1V146.6z
				 M290.6,145.3c0-0.2,0-0.4-0.1-0.6s-0.1-0.4-0.2-0.5c-0.1-0.1-0.3-0.2-0.4-0.3c-0.2-0.1-0.4-0.1-0.7-0.1c-0.2,0-0.3,0-0.4,0
				c-0.1,0-0.2,0-0.2,0c0,0.3,0,0.7,0,1c0,0.3,0,0.6,0,0.9c0,0.2,0,0.5,0,0.7c0,0.2,0,0.4,0,0.7h0.6c0.2,0,0.4,0,0.5-0.1
				c0.2-0.1,0.3-0.2,0.5-0.3c0.1-0.1,0.3-0.3,0.3-0.5C290.6,145.8,290.6,145.5,290.6,145.3z M290.7,149.5c0-0.6-0.1-1.1-0.4-1.4
				c-0.3-0.3-0.7-0.5-1.2-0.5c-0.1,0-0.2,0-0.3,0c-0.1,0-0.2,0-0.3,0c0,0.2,0,0.4,0,0.6c0,0.2,0,0.4,0,0.7c0,0.2,0,0.4,0,0.7
				c0,0.2,0,0.4,0,0.7c0,0.2,0,0.4,0,0.6c0,0.2,0,0.3,0,0.4c0.1,0,0.2,0,0.3,0c0.1,0,0.2,0,0.4,0c0.2,0,0.4,0,0.6-0.1
				c0.2-0.1,0.3-0.2,0.5-0.4c0.1-0.2,0.2-0.3,0.3-0.6C290.7,150.1,290.7,149.8,290.7,149.5z"/>
			<path id="XMLID_656_" class="st2" d="M297.4,147.9h-0.1v0.5c0,0.4,0,0.7,0,1c0,0.3,0,0.6,0,0.9c0,0.3,0,0.6,0,0.9
				c0,0.3,0,0.6,0.1,0.9c-0.2,0-0.3,0-0.5,0c-0.2,0-0.4,0-0.6,0c-0.2,0-0.4,0-0.6,0c-0.2,0-0.3,0-0.5,0c0-0.3,0-0.6,0-0.9
				c0-0.3,0-0.6,0-0.9c0-0.3,0-0.6,0-0.9c0-0.3,0-0.7,0-1v-1.8c0-0.4,0-0.7,0-1c0-0.3,0-0.6,0-0.9c0-0.3,0-0.6,0-0.9
				c0-0.3,0-0.6,0-0.9c0.2,0,0.3,0,0.5,0c0.2,0,0.4,0,0.6,0c0.2,0,0.5,0,0.8,0c0.3,0,0.7,0,1.1,0c0.3,0,0.6,0,0.9,0
				c0.2,0,0.4,0,0.6,0.1c0.2,0,0.3,0.1,0.5,0.1c0.1,0.1,0.3,0.1,0.4,0.2c0.3,0.2,0.5,0.4,0.6,0.7c0.2,0.3,0.2,0.6,0.2,1
				c0,0.7-0.2,1.2-0.5,1.6c-0.4,0.4-0.9,0.7-1.5,0.9c0.4,0.8,0.9,1.5,1.4,2.3l1.5,2.3c-0.2,0-0.4,0-0.6,0c-0.2,0-0.4,0-0.6,0
				c-0.2,0-0.4,0-0.6,0c-0.2,0-0.4,0-0.6,0L297.4,147.9z M299.4,145.4c0-0.4,0-0.7-0.1-0.9c-0.1-0.2-0.2-0.4-0.4-0.5
				c-0.2-0.1-0.4-0.2-0.6-0.2c-0.3,0-0.6-0.1-0.9-0.1c0,1.2-0.1,2.4-0.1,3.6c0.1,0,0.1,0,0.2,0c0,0,0.1,0,0.1,0c0.6,0,1-0.2,1.3-0.5
				C299.2,146.6,299.4,146.1,299.4,145.4z"/>
			<path id="XMLID_653_" class="st2" d="M307.9,142.9c0.3,0.8,0.6,1.6,0.9,2.4c0.3,0.8,0.6,1.7,1,2.5c0.3,0.8,0.6,1.6,1,2.4
				c0.3,0.7,0.6,1.4,0.8,1.9c-0.2,0-0.4,0-0.6,0c-0.2,0-0.4,0-0.6,0c-0.2,0-0.4,0-0.6,0c-0.2,0-0.4,0-0.6,0
				c-0.1-0.4-0.3-0.9-0.4-1.4c-0.2-0.5-0.3-0.9-0.5-1.4c-0.3,0-0.6,0-0.8,0c-0.3,0-0.6,0-0.8,0c-0.2,0-0.5,0-0.7,0
				c-0.2,0-0.5,0-0.7,0c-0.2,0.5-0.3,0.9-0.5,1.4s-0.3,0.9-0.4,1.4c-0.1,0-0.2,0-0.3,0c-0.1,0-0.2,0-0.3,0c-0.1,0-0.2,0-0.3,0
				c-0.1,0-0.2,0-0.3,0c0.1-0.2,0.2-0.6,0.4-1c0.2-0.4,0.4-0.9,0.6-1.4c0.2-0.5,0.4-1.1,0.7-1.7c0.2-0.6,0.5-1.2,0.7-1.8
				c0.2-0.6,0.5-1.2,0.7-1.8c0.2-0.6,0.4-1.1,0.6-1.6c0.1,0,0.2,0,0.3,0c0.1,0,0.2,0,0.2,0c0.1,0,0.2,0,0.3,0
				C307.8,142.9,307.8,142.9,307.9,142.9z M308.1,148.6c-0.2-0.5-0.4-1.1-0.6-1.6c-0.2-0.5-0.4-1-0.6-1.6c-0.2,0.5-0.4,1-0.6,1.6
				c-0.2,0.5-0.4,1.1-0.6,1.6H308.1z"/>
			<path id="XMLID_651_" class="st2" d="M313.8,145.6c0-0.6,0-1.1,0-1.5s0-0.8-0.1-1.1c0.2,0,0.4,0.1,0.6,0.1c0.2,0,0.4,0,0.6-0.1
				c1,1.1,1.9,2.1,2.9,3.2c0.9,1,1.9,2.1,2.9,3.2v-2.4c0-0.4,0-0.9,0-1.3c0-0.4,0-0.8,0-1.2c0-0.4,0-0.7,0-0.9c0-0.3,0-0.4,0-0.5
				c0.2,0,0.4,0.1,0.6,0.1c0.2,0,0.4,0,0.6-0.1c0,0.6-0.1,1.2-0.1,1.8s0,1-0.1,1.5c0,0.5,0,0.9,0,1.4c0,0.4,0,0.9,0,1.4
				c0,0.5,0,0.9,0,1.4v1.6l-0.3-0.1c-0.1,0-0.2,0-0.3,0c-0.2,0-0.3,0-0.5,0.1c-0.9-1.1-1.9-2.2-2.8-3.2c-1-1.1-2-2.1-3-3.2
				c0,0.5,0,1,0,1.5v1.5c0,0.5,0,1,0,1.4c0,0.4,0,0.7,0,0.9c0,0.3,0,0.5,0,0.6c0,0.2,0,0.3,0,0.4c-0.1,0-0.2,0-0.3,0
				c-0.1,0-0.2,0-0.3,0c-0.2,0-0.4,0-0.6,0.1c0-0.1,0-0.2,0-0.4c0-0.2,0-0.5,0.1-0.8c0-0.3,0-0.7,0.1-1.1c0-0.4,0-0.9,0.1-1.3
				c0-0.5,0-0.9,0-1.4C313.8,146.5,313.8,146,313.8,145.6z"/>
			<path id="XMLID_649_" class="st2" d="M326.3,145.1c0-0.3,0-0.5,0-0.7c0-0.2,0-0.4,0-0.5c-0.1,0-0.3,0-0.5,0c-0.2,0-0.4,0-0.6,0
				c-0.2,0-0.4,0-0.7,0.1c-0.2,0-0.4,0-0.6,0.1c0-0.1,0-0.2,0-0.3c0-0.1,0-0.2,0-0.3c0-0.1,0-0.2,0-0.3c0-0.1,0-0.2,0-0.3
				c0.3,0,0.6,0,0.8,0c0.2,0,0.5,0,0.7,0c0.3,0,0.5,0,0.8,0c0.3,0,0.7,0,1.1,0c0.4,0,0.8,0,1.1,0c0.3,0,0.6,0,0.8,0
				c0.2,0,0.5,0,0.7,0c0.2,0,0.5,0,0.8,0c0,0.1,0,0.2-0.1,0.3c0,0.1,0,0.2,0,0.3c0,0.1,0,0.2,0,0.3l0.1,0.3c-0.2,0-0.4,0-0.6-0.1
				c-0.2,0-0.4,0-0.7-0.1s-0.4,0-0.6,0c-0.2,0-0.4,0-0.5,0c0,0.1,0,0.2,0,0.5v4c0,0.4,0,0.7,0,1c0,0.3,0,0.6,0,0.9
				c0,0.3,0,0.6,0,0.9c0,0.3,0,0.6,0,0.9c-0.1,0-0.3,0-0.5,0c-0.2,0-0.4,0-0.6,0c-0.2,0-0.4,0-0.6,0c-0.2,0-0.3,0-0.5,0
				c0-0.3,0-0.6,0-0.9c0-0.3,0-0.6,0-0.9c0-0.3,0-0.6,0-0.9c0-0.3,0-0.7,0-1V145.1z"/>
			<path id="XMLID_647_" class="st2" d="M340.3,144.7c-0.3-0.8-0.8-1.1-1.6-1.1c-0.4,0-0.7,0.1-1,0.4c-0.3,0.2-0.4,0.5-0.4,0.8
				c0,0.3,0.1,0.6,0.3,0.8c0.2,0.2,0.4,0.4,0.7,0.6c0.3,0.2,0.6,0.3,1,0.5c0.3,0.2,0.7,0.3,1,0.6c0.3,0.2,0.5,0.5,0.7,0.8
				c0.2,0.3,0.3,0.7,0.3,1.2c0,0.4-0.1,0.8-0.3,1.2s-0.4,0.7-0.7,0.9c-0.3,0.3-0.7,0.5-1.1,0.6c-0.4,0.1-0.9,0.2-1.4,0.2
				c-0.5,0-0.9-0.1-1.3-0.2c-0.4-0.1-0.7-0.2-0.8-0.4c0.1-0.3,0.2-0.6,0.2-0.9c0.1-0.3,0.1-0.5,0.2-0.8h0.3c0,0.2,0.1,0.4,0.2,0.5
				c0.1,0.2,0.2,0.3,0.4,0.5c0.2,0.1,0.3,0.2,0.6,0.3c0.2,0.1,0.4,0.1,0.7,0.1c0.5,0,0.9-0.1,1.2-0.4s0.4-0.6,0.4-1
				c0-0.3-0.1-0.6-0.3-0.8c-0.2-0.2-0.4-0.4-0.7-0.6c-0.3-0.2-0.6-0.3-1-0.5c-0.3-0.2-0.7-0.3-1-0.6c-0.3-0.2-0.5-0.5-0.7-0.8
				c-0.2-0.3-0.3-0.7-0.3-1.2c0-0.5,0.1-0.9,0.2-1.2c0.2-0.4,0.4-0.7,0.7-0.9c0.3-0.2,0.6-0.4,0.9-0.5c0.4-0.1,0.7-0.2,1.1-0.2
				c0.5,0,0.9,0.1,1.3,0.2c0.4,0.1,0.7,0.3,0.9,0.5c-0.1,0.2-0.2,0.4-0.2,0.6c-0.1,0.2-0.1,0.4-0.2,0.7H340.3z"/>
			<path id="XMLID_644_" class="st2" d="M343.6,146.6c0-0.4,0-0.7,0-1c0-0.3,0-0.6,0-0.9c0-0.3,0-0.6,0-0.9c0-0.3,0-0.6-0.1-0.9
				c0.2,0,0.3,0,0.5,0c0.2,0,0.4,0,0.6,0c0.3,0,0.6,0,1,0s0.7,0,1,0c0.6,0,1.1,0,1.5,0.1c0.4,0.1,0.6,0.2,0.8,0.4
				c0.3,0.2,0.5,0.5,0.6,0.8c0.1,0.3,0.2,0.6,0.2,1c0,0.5-0.1,0.9-0.3,1.3c-0.2,0.4-0.4,0.7-0.7,0.9c-0.3,0.2-0.7,0.4-1.1,0.5
				c-0.4,0.1-0.9,0.2-1.4,0.2h-0.7c0,0.7,0,1.3,0,2c0,0.7,0,1.3,0.1,2c-0.1,0-0.3,0-0.5,0c-0.2,0-0.4,0-0.6,0c-0.2,0-0.4,0-0.6,0
				c-0.2,0-0.3,0-0.5,0c0-0.3,0-0.6,0.1-0.9c0-0.3,0-0.6,0-0.9c0-0.3,0-0.6,0-0.9c0-0.3,0-0.7,0-1V146.6z M347.5,145.5
				c0-0.3,0-0.6-0.1-0.8c-0.1-0.2-0.2-0.4-0.3-0.6c-0.1-0.1-0.3-0.2-0.4-0.3c-0.2-0.1-0.4-0.1-0.5-0.1h-0.3c-0.1,0-0.2,0-0.3,0
				c0,0.6,0,1.3,0,1.9c0,0.6,0,1.2,0,1.9c0.2,0,0.4,0,0.7-0.1c0.2,0,0.4-0.1,0.6-0.3c0.2-0.1,0.4-0.3,0.5-0.6
				C347.5,146.3,347.5,145.9,347.5,145.5z"/>
			<path id="XMLID_642_" class="st2" d="M351.8,146.6c0-0.4,0-0.7,0-1c0-0.3,0-0.6,0-0.9c0-0.3,0-0.6,0-0.9c0-0.3,0-0.6,0-0.9
				c0.2,0,0.3,0,0.5,0c0.2,0,0.4,0,0.6,0c0.2,0,0.4,0,0.6,0c0.2,0,0.3,0,0.5,0c0,0.3,0,0.6,0,0.9c0,0.3,0,0.6,0,0.9
				c0,0.3,0,0.6,0,0.9c0,0.3,0,0.7,0,1v1.8c0,0.4,0,0.7,0,1c0,0.3,0,0.6,0,0.9c0,0.3,0,0.6,0,0.9c0,0.3,0,0.6,0,0.9
				c-0.2,0-0.3,0-0.5,0c-0.2,0-0.4,0-0.6,0c-0.2,0-0.4,0-0.6,0c-0.2,0-0.3,0-0.5,0c0-0.3,0-0.6,0-0.9c0-0.3,0-0.6,0-0.9
				c0-0.3,0-0.6,0-0.9c0-0.3,0-0.7,0-1V146.6z"/>
			<path id="XMLID_639_" class="st2" d="M359,147.9h-0.1v0.5c0,0.4,0,0.7,0,1c0,0.3,0,0.6,0,0.9c0,0.3,0,0.6,0,0.9
				c0,0.3,0,0.6,0.1,0.9c-0.2,0-0.3,0-0.5,0c-0.2,0-0.4,0-0.6,0s-0.4,0-0.6,0c-0.2,0-0.3,0-0.5,0c0-0.3,0-0.6,0-0.9
				c0-0.3,0-0.6,0-0.9c0-0.3,0-0.6,0-0.9c0-0.3,0-0.7,0-1v-1.8c0-0.4,0-0.7,0-1c0-0.3,0-0.6,0-0.9c0-0.3,0-0.6,0-0.9
				c0-0.3,0-0.6,0-0.9c0.2,0,0.3,0,0.5,0c0.2,0,0.4,0,0.6,0c0.2,0,0.5,0,0.8,0c0.3,0,0.7,0,1.1,0c0.3,0,0.6,0,0.9,0
				c0.2,0,0.4,0,0.6,0.1c0.2,0,0.3,0.1,0.5,0.1c0.1,0.1,0.3,0.1,0.4,0.2c0.3,0.2,0.5,0.4,0.6,0.7c0.2,0.3,0.2,0.6,0.2,1
				c0,0.7-0.2,1.2-0.5,1.6c-0.4,0.4-0.9,0.7-1.5,0.9c0.4,0.8,0.9,1.5,1.4,2.3l1.5,2.3c-0.2,0-0.4,0-0.6,0c-0.2,0-0.4,0-0.6,0
				c-0.2,0-0.4,0-0.6,0s-0.4,0-0.6,0L359,147.9z M360.9,145.4c0-0.4,0-0.7-0.1-0.9c-0.1-0.2-0.2-0.4-0.4-0.5
				c-0.2-0.1-0.4-0.2-0.6-0.2c-0.3,0-0.6-0.1-0.9-0.1c0,1.2-0.1,2.4-0.1,3.6c0.1,0,0.1,0,0.2,0c0,0,0.1,0,0.1,0c0.6,0,1-0.2,1.3-0.5
				C360.8,146.6,360.9,146.1,360.9,145.4z"/>
			<path id="XMLID_637_" class="st2" d="M365.7,146.6c0-0.4,0-0.7,0-1c0-0.3,0-0.6,0-0.9c0-0.3,0-0.6,0-0.9c0-0.3,0-0.6,0-0.9
				c0.2,0,0.3,0,0.5,0c0.2,0,0.4,0,0.6,0c0.2,0,0.4,0,0.6,0c0.2,0,0.3,0,0.5,0c0,0.3,0,0.6,0,0.9c0,0.3,0,0.6,0,0.9
				c0,0.3,0,0.6,0,0.9c0,0.3,0,0.7,0,1v1.8c0,0.4,0,0.7,0,1c0,0.3,0,0.6,0,0.9c0,0.3,0,0.6,0,0.9c0,0.3,0,0.6,0,0.9
				c-0.2,0-0.3,0-0.5,0c-0.2,0-0.4,0-0.6,0c-0.2,0-0.4,0-0.6,0c-0.2,0-0.3,0-0.5,0c0-0.3,0-0.6,0-0.9c0-0.3,0-0.6,0-0.9
				c0-0.3,0-0.6,0-0.9c0-0.3,0-0.7,0-1V146.6z"/>
			<path id="XMLID_635_" class="st2" d="M372.4,145.1c0-0.3,0-0.5,0-0.7c0-0.2,0-0.4,0-0.5c-0.1,0-0.3,0-0.5,0c-0.2,0-0.4,0-0.6,0
				c-0.2,0-0.4,0-0.7,0.1c-0.2,0-0.4,0-0.6,0.1c0-0.1,0-0.2,0-0.3c0-0.1,0-0.2,0-0.3c0-0.1,0-0.2,0-0.3c0-0.1,0-0.2,0-0.3
				c0.3,0,0.6,0,0.8,0c0.2,0,0.5,0,0.7,0c0.3,0,0.5,0,0.8,0c0.3,0,0.7,0,1.1,0c0.4,0,0.8,0,1.1,0c0.3,0,0.6,0,0.8,0
				c0.2,0,0.5,0,0.7,0c0.2,0,0.5,0,0.8,0c0,0.1,0,0.2-0.1,0.3c0,0.1,0,0.2,0,0.3c0,0.1,0,0.2,0,0.3l0.1,0.3c-0.2,0-0.4,0-0.6-0.1
				c-0.2,0-0.4,0-0.7-0.1c-0.2,0-0.4,0-0.6,0c-0.2,0-0.4,0-0.5,0c0,0.1,0,0.2,0,0.5v4c0,0.4,0,0.7,0,1c0,0.3,0,0.6,0,0.9
				c0,0.3,0,0.6,0,0.9c0,0.3,0,0.6,0,0.9c-0.1,0-0.3,0-0.5,0c-0.2,0-0.4,0-0.6,0c-0.2,0-0.4,0-0.6,0c-0.2,0-0.3,0-0.5,0
				c0-0.3,0-0.6,0-0.9c0-0.3,0-0.6,0-0.9c0-0.3,0-0.6,0-0.9c0-0.3,0-0.7,0-1V145.1z"/>
			<path id="XMLID_632_" class="st2" d="M381.7,147.5c0-0.7,0.1-1.3,0.4-1.8c0.2-0.6,0.6-1.1,1-1.5c0.4-0.4,1-0.8,1.6-1
				c0.6-0.2,1.3-0.4,2.1-0.4c0.7,0,1.3,0.1,2,0.3c0.6,0.2,1.1,0.5,1.6,0.9c0.4,0.4,0.8,0.9,1.1,1.5c0.3,0.6,0.4,1.3,0.4,2.1
				c0,0.6-0.1,1.3-0.4,1.8c-0.2,0.6-0.6,1.1-1,1.5c-0.4,0.4-1,0.8-1.6,1c-0.6,0.2-1.3,0.4-2,0.4c-0.7,0-1.4-0.1-2-0.3
				c-0.6-0.2-1.1-0.5-1.6-0.9s-0.8-0.9-1.1-1.5C381.9,149.1,381.7,148.4,381.7,147.5z M389.7,147.2c0-0.6-0.1-1.1-0.2-1.5
				c-0.1-0.5-0.3-0.8-0.6-1.2s-0.6-0.6-0.9-0.7s-0.7-0.3-1.2-0.3c-0.4,0-0.9,0.1-1.2,0.3c-0.4,0.2-0.7,0.5-0.9,0.9
				c-0.2,0.4-0.4,0.8-0.6,1.3c-0.1,0.5-0.2,1-0.2,1.6c0,0.7,0.1,1.3,0.2,1.8c0.1,0.5,0.4,0.9,0.6,1.2c0.3,0.3,0.6,0.5,0.9,0.6
				c0.3,0.1,0.7,0.2,1.1,0.2c0.4,0,0.8-0.1,1.1-0.3c0.4-0.2,0.7-0.4,1-0.8c0.3-0.3,0.5-0.8,0.6-1.3
				C389.6,148.6,389.7,148,389.7,147.2z"/>
			<path id="XMLID_630_" class="st2" d="M394.1,146.6c0-0.4,0-0.7,0-1c0-0.3,0-0.6,0-0.9c0-0.3,0-0.6,0-0.9c0-0.3,0-0.6-0.1-0.9
				c0.4,0,0.8,0,1.2,0c0.4,0,0.8,0,1.2,0c0.3,0,0.6,0,0.9,0c0.3,0,0.6,0,0.8,0c0.2,0,0.5,0,0.6,0c0.2,0,0.3,0,0.4,0
				c0,0.1,0,0.2,0,0.2c0,0.1,0,0.2,0,0.3c0,0.1,0,0.3,0,0.3c0,0.1,0,0.2,0,0.3c-0.3,0-0.5,0-0.8-0.1c-0.3,0-0.6,0-0.9-0.1
				s-0.5,0-0.8,0c-0.2,0-0.4,0-0.5,0c0,0.5-0.1,1-0.1,1.4c0,0.5,0,1,0,1.4c0.6,0,1.1,0,1.6,0c0.5,0,1,0,1.5-0.1c0,0.2,0,0.3-0.1,0.3
				c0,0.1,0,0.2,0,0.3c0,0.1,0,0.1,0,0.2c0,0.1,0,0.2,0,0.3c-1-0.1-2-0.1-3-0.1v0.7c0,0.4,0,0.7,0,1c0,0.3,0,0.6,0,0.9
				c0,0.3,0,0.6,0,0.9c0,0.3,0,0.6,0,0.9c-0.1,0-0.3,0-0.5,0c-0.2,0-0.4,0-0.6,0c-0.2,0-0.4,0-0.6,0c-0.2,0-0.3,0-0.5,0
				c0-0.3,0-0.6,0.1-0.9c0-0.3,0-0.6,0-0.9c0-0.3,0-0.6,0-0.9c0-0.3,0-0.7,0-1V146.6z"/>
			<path id="XMLID_627_" class="st2" d="M405.1,146.6c0-0.4,0-0.7,0-1c0-0.3,0-0.6,0-0.9c0-0.3,0-0.6,0-0.9c0-0.3,0-0.6,0-0.9
				c0.2,0,0.3,0,0.5,0c0.2,0,0.4,0,0.6,0c0.3,0,0.6,0,1,0c0.4,0,0.8,0,1.4,0c0.8,0,1.4,0.1,2.1,0.2c0.6,0.1,1.2,0.4,1.6,0.7
				c0.5,0.3,0.8,0.8,1.1,1.3c0.2,0.6,0.4,1.3,0.4,2.1c0,0.7-0.1,1.4-0.4,2c-0.2,0.6-0.6,1.1-1,1.5c-0.4,0.4-0.9,0.8-1.5,1
				c-0.6,0.2-1.1,0.3-1.8,0.3c-0.7,0-1.2,0-1.7,0s-0.9,0-1.2,0c-0.2,0-0.4,0-0.6,0c-0.2,0-0.3,0-0.5,0c0-0.3,0-0.6,0-0.9
				c0-0.3,0-0.6,0-0.9c0-0.3,0-0.6,0-0.9c0-0.3,0-0.7,0-1V146.6z M407.1,144.9v5.3c0,0.3,0,0.5,0,0.7c0,0.2,0,0.3,0,0.4
				c0.1,0,0.3,0,0.5,0c0.2,0,0.4,0,0.7,0c0.5,0,0.9-0.1,1.3-0.3s0.7-0.4,1-0.8c0.3-0.3,0.5-0.8,0.6-1.3c0.1-0.5,0.2-1.1,0.2-1.8
				c0-0.5-0.1-1-0.2-1.5c-0.1-0.4-0.3-0.8-0.6-1.1s-0.6-0.5-1-0.7c-0.4-0.2-0.8-0.2-1.2-0.2c-0.3,0-0.6,0-0.8,0c-0.2,0-0.4,0-0.6,0
				c0,0.1,0,0.2,0,0.4C407.1,144.4,407.1,144.6,407.1,144.9z"/>
			<path id="XMLID_624_" class="st2" d="M415.4,147.5c0-0.7,0.1-1.3,0.4-1.8c0.2-0.6,0.6-1.1,1-1.5c0.4-0.4,1-0.8,1.6-1
				c0.6-0.2,1.3-0.4,2.1-0.4c0.7,0,1.4,0.1,2,0.3c0.6,0.2,1.1,0.5,1.6,0.9c0.4,0.4,0.8,0.9,1.1,1.5c0.3,0.6,0.4,1.3,0.4,2.1
				c0,0.6-0.1,1.3-0.4,1.8c-0.2,0.6-0.6,1.1-1,1.5c-0.4,0.4-1,0.8-1.6,1c-0.6,0.2-1.3,0.4-2,0.4c-0.7,0-1.4-0.1-2-0.3
				c-0.6-0.2-1.1-0.5-1.6-0.9s-0.8-0.9-1.1-1.5C415.5,149.1,415.4,148.4,415.4,147.5z M423.3,147.2c0-0.6-0.1-1.1-0.2-1.5
				s-0.3-0.8-0.6-1.2c-0.3-0.3-0.6-0.6-0.9-0.7s-0.7-0.3-1.2-0.3c-0.4,0-0.9,0.1-1.2,0.3c-0.4,0.2-0.7,0.5-0.9,0.9
				c-0.2,0.4-0.4,0.8-0.6,1.3c-0.1,0.5-0.2,1-0.2,1.6c0,0.7,0.1,1.3,0.2,1.8c0.1,0.5,0.4,0.9,0.6,1.2c0.3,0.3,0.6,0.5,0.9,0.6
				c0.3,0.1,0.7,0.2,1.1,0.2c0.4,0,0.8-0.1,1.1-0.3c0.4-0.2,0.7-0.4,1-0.8c0.3-0.3,0.5-0.8,0.6-1.3
				C423.3,148.6,423.3,148,423.3,147.2z"/>
			<path id="XMLID_622_" class="st2" d="M433.9,147.7l-1,0c-0.3,0-0.7,0-1,0c-0.3,0-0.7,0-1,0c-0.3,0-0.7,0-1,0v0.8c0,0.4,0,0.7,0,1
				c0,0.3,0,0.6,0,0.9c0,0.3,0,0.6,0,0.9c0,0.3,0,0.6,0.1,0.9c-0.2,0-0.3,0-0.5,0s-0.4,0-0.6,0c-0.2,0-0.4,0-0.6,0
				c-0.2,0-0.3,0-0.5,0c0-0.3,0-0.6,0-0.9c0-0.3,0-0.6,0-0.9c0-0.3,0-0.6,0-0.9c0-0.3,0-0.7,0-1v-1.8c0-0.4,0-0.7,0-1
				c0-0.3,0-0.6,0-0.9c0-0.3,0-0.6,0-0.9c0-0.3,0-0.6,0-0.9c0.2,0,0.3,0,0.5,0c0.2,0,0.4,0,0.6,0c0.2,0,0.4,0,0.6,0
				c0.2,0,0.3,0,0.5,0c0,0.6-0.1,1.1-0.1,1.7c0,0.6,0,1.2,0,1.9c0.2,0,0.5,0,0.8,0c0.3,0,0.7,0,1.2,0c0.5,0,0.9,0,1.2,0
				c0.3,0,0.6,0,0.8,0c0-0.7,0-1.4,0-1.9c0-0.6,0-1.1-0.1-1.7c0.1,0,0.3,0,0.5,0c0.2,0,0.4,0,0.6,0c0.2,0,0.4,0,0.6,0
				c0.2,0,0.3,0,0.5,0c0,0.3,0,0.6,0,0.9c0,0.3,0,0.6,0,0.9c0,0.3,0,0.6,0,0.9c0,0.3,0,0.7,0,1v1.8c0,0.4,0,0.7,0,1
				c0,0.3,0,0.6,0,0.9c0,0.3,0,0.6,0,0.9c0,0.3,0,0.6,0,0.9c-0.1,0-0.3,0-0.5,0c-0.2,0-0.4,0-0.6,0c-0.2,0-0.4,0-0.6,0
				c-0.2,0-0.3,0-0.5,0c0-0.3,0-0.6,0-0.9c0-0.3,0-0.6,0-0.9c0-0.3,0-0.6,0-0.9c0-0.3,0-0.7,0-1V147.7z"/>
			<path id="XMLID_619_" class="st2" d="M442.7,142.9c0.3,0.8,0.6,1.6,0.9,2.4c0.3,0.8,0.6,1.7,1,2.5c0.3,0.8,0.6,1.6,1,2.4
				c0.3,0.7,0.6,1.4,0.8,1.9c-0.2,0-0.4,0-0.6,0s-0.4,0-0.6,0c-0.2,0-0.4,0-0.6,0s-0.4,0-0.6,0c-0.1-0.4-0.3-0.9-0.4-1.4
				c-0.2-0.5-0.3-0.9-0.5-1.4c-0.3,0-0.6,0-0.8,0c-0.3,0-0.6,0-0.8,0c-0.2,0-0.5,0-0.7,0s-0.5,0-0.7,0c-0.2,0.5-0.3,0.9-0.5,1.4
				c-0.2,0.5-0.3,0.9-0.4,1.4c-0.1,0-0.2,0-0.3,0s-0.2,0-0.3,0c-0.1,0-0.2,0-0.3,0c-0.1,0-0.2,0-0.3,0c0.1-0.2,0.2-0.6,0.4-1
				c0.2-0.4,0.4-0.9,0.6-1.4c0.2-0.5,0.4-1.1,0.7-1.7c0.2-0.6,0.5-1.2,0.7-1.8c0.2-0.6,0.5-1.2,0.7-1.8c0.2-0.6,0.4-1.1,0.6-1.6
				c0.1,0,0.2,0,0.3,0c0.1,0,0.2,0,0.2,0c0.1,0,0.2,0,0.3,0C442.5,142.9,442.6,142.9,442.7,142.9z M442.8,148.6
				c-0.2-0.5-0.4-1.1-0.6-1.6s-0.4-1-0.6-1.6c-0.2,0.5-0.4,1-0.6,1.6c-0.2,0.5-0.4,1.1-0.6,1.6H442.8z"/>
		</g>
	</g>
	<g id="XMLID_3388_">
		<g id="XMLID_249_">
			<path id="XMLID_271_" class="st0" d="M171.3,80.4c0-1.3,0-2.5,0-3.6c0-1.1,0-2.2-0.1-3.2c0-1-0.1-2-0.1-3c0-1-0.1-2-0.2-3
				c0.5,0.1,1.1,0.1,1.7,0.1c0.6,0,1.3,0.1,2.1,0.1c1,0,2.2,0,3.4-0.1c1.3-0.1,2.9-0.1,5-0.1c2.6,0,5,0.2,7.2,0.7
				c2.2,0.5,4,1.3,5.6,2.4c1.6,1.1,2.8,2.7,3.7,4.6c0.9,1.9,1.3,4.4,1.3,7.2c0,2.6-0.4,4.9-1.3,6.9c-0.8,2.1-2,3.8-3.5,5.3
				c-1.5,1.5-3.2,2.6-5.1,3.4c-1.9,0.8-4,1.2-6.1,1.2c-2.3,0-4.3,0-5.9-0.1c-1.6-0.1-3-0.1-4.3-0.1c-0.8,0-1.4,0-2.1,0.1
				c-0.6,0-1.2,0.1-1.7,0.2c0.1-1,0.1-2,0.2-3c0-1,0.1-2,0.1-3c0-1,0-2.1,0.1-3.2c0-1.1,0-2.3,0-3.6V80.4z M178.1,74.4v18.4
				c0,0.9,0,1.7,0,2.4c0,0.7,0,1.2,0,1.4c0.5,0,1,0.1,1.7,0.1s1.4,0,2.4,0c1.7,0,3.3-0.3,4.7-0.9c1.4-0.6,2.6-1.5,3.6-2.7
				c1-1.2,1.7-2.7,2.3-4.5c0.5-1.8,0.8-3.9,0.8-6.3c0-1.9-0.2-3.6-0.7-5.1c-0.5-1.5-1.2-2.8-2.1-3.9c-0.9-1.1-2-1.9-3.3-2.4
				c-1.3-0.6-2.7-0.8-4.3-0.8c-1.1,0-2,0-2.7,0.1c-0.7,0-1.4,0.1-2.1,0.1c0,0.2,0,0.7,0,1.4C178.1,72.6,178.1,73.5,178.1,74.4z"/>
			<path id="XMLID_268_" class="st0" d="M204.7,83.5c0-2.3,0.4-4.4,1.3-6.4c0.8-2,2-3.8,3.6-5.3c1.5-1.5,3.4-2.7,5.6-3.6
				c2.2-0.9,4.6-1.3,7.3-1.3c2.4,0,4.7,0.3,6.8,1c2.1,0.7,4,1.7,5.6,3.1c1.6,1.4,2.8,3.1,3.7,5.1c0.9,2.1,1.4,4.5,1.4,7.3
				c0,2.3-0.4,4.4-1.3,6.4c-0.9,2-2.1,3.8-3.6,5.3c-1.6,1.5-3.4,2.7-5.6,3.6c-2.2,0.9-4.5,1.3-7.1,1.3c-2.4,0-4.7-0.3-6.8-1
				c-2.1-0.6-4-1.6-5.6-3c-1.6-1.3-2.8-3-3.8-5.1C205.2,88.9,204.7,86.4,204.7,83.5z M232.3,82.5c0-2-0.2-3.8-0.7-5.4
				c-0.5-1.6-1.2-2.9-2-4c-0.9-1.1-1.9-2-3.2-2.6c-1.2-0.6-2.6-0.9-4.1-0.9c-1.6,0-3,0.4-4.2,1.1c-1.2,0.8-2.3,1.8-3.2,3.1
				c-0.9,1.3-1.5,2.8-2,4.5c-0.4,1.7-0.7,3.6-0.7,5.6c0,2.5,0.3,4.5,0.8,6.2c0.5,1.7,1.2,3,2.1,4.1c0.9,1,1.9,1.8,3.1,2.3
				s2.4,0.7,3.7,0.7c1.4,0,2.7-0.3,4-0.9s2.4-1.5,3.3-2.7c0.9-1.2,1.7-2.7,2.3-4.6C232.1,87.2,232.3,85.1,232.3,82.5z"/>
			<path id="XMLID_266_" class="st0" d="M266.5,84l-3.5-0.1c-1.2,0-2.3-0.1-3.5-0.1c-1.2,0-2.3,0-3.5,0c-1.2,0-2.4,0.1-3.5,0.1v2.6
				c0,1.3,0,2.5,0,3.6c0,1.1,0,2.2,0.1,3.2c0,1,0.1,2,0.1,3c0,1,0.1,2,0.2,3c-0.5-0.1-1.1-0.1-1.7-0.2c-0.6,0-1.3-0.1-2.1-0.1
				s-1.4,0-2.1,0.1c-0.6,0-1.2,0.1-1.7,0.2c0.1-1,0.1-2,0.2-3c0-1,0.1-2,0.1-3c0-1,0-2.1,0.1-3.2c0-1.1,0-2.3,0-3.6v-6.3
				c0-1.3,0-2.5,0-3.6c0-1.1,0-2.2-0.1-3.2c0-1-0.1-2-0.1-3c0-1-0.1-2-0.2-3c0.5,0.1,1.1,0.1,1.7,0.1c0.6,0,1.3,0.1,2.1,0.1
				s1.5,0,2.1-0.1c0.6,0,1.2-0.1,1.7-0.1c-0.2,2-0.3,4-0.3,5.9c-0.1,2-0.1,4.2-0.1,6.8c0.8,0,1.8,0.1,2.9,0.1c1.1,0,2.5,0,4.2,0
				c1.7,0,3,0,4.1,0c1.1,0,2,0,2.9-0.1c0-2.6,0-4.8-0.1-6.8c-0.1-2-0.1-3.9-0.3-5.9c0.5,0.1,1.1,0.1,1.7,0.1c0.6,0,1.3,0.1,2.1,0.1
				c0.8,0,1.5,0,2.1-0.1c0.6,0,1.2-0.1,1.7-0.1c-0.1,1-0.1,2-0.2,3c0,1-0.1,2-0.1,3c0,1-0.1,2.1-0.1,3.2c0,1.1,0,2.3,0,3.6v6.3
				c0,1.3,0,2.5,0,3.6c0,1.1,0,2.2,0.1,3.2c0,1,0.1,2,0.1,3c0,1,0.1,2,0.2,3c-0.5-0.1-1.1-0.1-1.7-0.2c-0.6,0-1.3-0.1-2.1-0.1
				c-0.8,0-1.5,0-2.1,0.1c-0.6,0-1.2,0.1-1.7,0.2c0.1-1,0.1-2,0.2-3c0-1,0.1-2,0.1-3c0-1,0-2.1,0.1-3.2c0-1.1,0-2.3,0-3.6V84z"/>
			<path id="XMLID_263_" class="st0" d="M294.8,67.4c1,2.6,2.1,5.4,3.2,8.4c1.1,3,2.3,5.9,3.4,8.8c1.1,2.9,2.2,5.6,3.3,8.2
				c1.1,2.6,2.1,4.8,3,6.7c-0.7-0.1-1.4-0.1-2.1-0.2c-0.7,0-1.3-0.1-2-0.1c-0.6,0-1.3,0-2,0.1c-0.7,0-1.3,0.1-2,0.2
				c-0.5-1.6-1-3.1-1.5-4.7c-0.5-1.6-1.1-3.2-1.7-4.8c-1,0-2,0-2.9-0.1c-1,0-2,0-2.9,0c-0.8,0-1.6,0-2.4,0c-0.8,0-1.6,0-2.4,0.1
				c-0.6,1.6-1.2,3.2-1.7,4.7c-0.5,1.6-1,3.2-1.4,4.8c-0.4-0.1-0.7-0.1-1.1-0.2c-0.4,0-0.7-0.1-1.1-0.1c-0.4,0-0.7,0-1.1,0.1
				c-0.4,0-0.8,0.1-1.2,0.2c0.4-0.9,0.9-2,1.5-3.4s1.3-3,2.1-4.8c0.8-1.8,1.6-3.7,2.4-5.8c0.8-2,1.7-4.1,2.5-6.2
				c0.8-2.1,1.7-4.1,2.5-6.2c0.8-2,1.5-3.9,2.2-5.7c0.3,0.1,0.6,0.1,0.9,0.2c0.3,0,0.6,0.1,0.9,0.1c0.3,0,0.6,0,0.9-0.1
				C294.2,67.5,294.5,67.5,294.8,67.4z M295.4,87.3c-0.7-1.9-1.3-3.7-2-5.5c-0.7-1.8-1.4-3.6-2.1-5.5c-0.8,1.8-1.6,3.6-2.3,5.5
				c-0.7,1.8-1.4,3.7-2.1,5.5H295.4z"/>
			<path id="XMLID_260_" class="st0" d="M322,80.4c0-1.3,0-2.5,0-3.6c0-1.1,0-2.2-0.1-3.2c0-1-0.1-2-0.1-3c0-1-0.1-2-0.2-3
				c0.5,0.1,1.1,0.1,1.7,0.1c0.6,0,1.3,0.1,2.1,0.1c1.1,0,2.2,0,3.4-0.1c1.2-0.1,2.3-0.1,3.4-0.1c2.2,0,3.9,0.2,5.1,0.5
				c1.2,0.3,2.2,0.8,2.9,1.4c1,0.8,1.7,1.7,2.2,2.7c0.5,1,0.7,2.2,0.7,3.6c0,1.7-0.3,3.2-0.9,4.5c-0.6,1.3-1.4,2.3-2.5,3.1
				s-2.3,1.4-3.8,1.7c-1.5,0.4-3,0.6-4.8,0.6h-2.3c0,2.3,0,4.6,0.1,6.9c0,2.3,0.1,4.6,0.3,6.9c-0.5-0.1-1.1-0.1-1.7-0.2
				c-0.6,0-1.3-0.1-2.1-0.1c-0.8,0-1.5,0-2.1,0.1c-0.6,0-1.2,0.1-1.7,0.2c0.1-1,0.1-2,0.2-3c0-1,0.1-2,0.1-3c0-1,0-2.1,0.1-3.2
				c0-1.1,0-2.3,0-3.6V80.4z M335.7,76.5c0-1.2-0.1-2.1-0.4-2.9c-0.3-0.8-0.6-1.4-1.1-1.9c-0.4-0.5-1-0.8-1.6-1
				c-0.6-0.2-1.2-0.3-1.9-0.3h-1.1c-0.4,0-0.6,0-0.9,0c0,2.2-0.1,4.4-0.1,6.5c0,2.2,0,4.3,0,6.5c0.8,0,1.6-0.1,2.4-0.2
				c0.8-0.1,1.6-0.5,2.2-1c0.7-0.5,1.2-1.2,1.7-2C335.5,79.2,335.7,78,335.7,76.5z"/>
			<path id="XMLID_257_" class="st0" d="M355.3,84.8h-0.4v1.9c0,1.3,0,2.5,0,3.6c0,1.1,0,2.2,0.1,3.2c0,1,0.1,2,0.1,3
				c0,1,0.1,2,0.2,3c-0.5-0.1-1.1-0.1-1.7-0.2c-0.6,0-1.3-0.1-2.1-0.1s-1.4,0-2.1,0.1c-0.6,0-1.2,0.1-1.7,0.2c0.1-1,0.1-2,0.2-3
				c0-1,0.1-2,0.1-3c0-1,0-2.1,0.1-3.2c0-1.1,0-2.3,0-3.6v-6.3c0-1.3,0-2.5,0-3.6c0-1.1,0-2.2-0.1-3.2c0-1-0.1-2-0.1-3
				c0-1-0.1-2-0.2-3c0.5,0.1,1.1,0.1,1.7,0.1c0.6,0,1.3,0.1,2.1,0.1c0.8,0,1.8,0,2.8-0.1c1.1-0.1,2.4-0.1,4-0.1c1.2,0,2.2,0,3,0.1
				c0.8,0.1,1.5,0.2,2.1,0.3c0.6,0.1,1.1,0.3,1.6,0.5c0.5,0.2,0.9,0.4,1.3,0.7c0.9,0.7,1.6,1.5,2.2,2.5c0.5,1,0.8,2.2,0.8,3.6
				c0,2.3-0.6,4.1-1.8,5.5c-1.2,1.4-3,2.4-5.3,3c1.5,2.6,3,5.2,4.7,7.8l5.1,7.8c-0.7-0.1-1.4-0.1-2.1-0.2c-0.7,0-1.4-0.1-2.1-0.1
				c-0.7,0-1.4,0-2.1,0.1c-0.7,0-1.4,0.1-2.1,0.2L355.3,84.8z M362.2,76.3c0-1.3-0.1-2.4-0.4-3.2c-0.3-0.8-0.7-1.4-1.3-1.8
				c-0.6-0.4-1.3-0.7-2.2-0.8c-0.9-0.1-2-0.2-3.2-0.2c-0.1,4.2-0.2,8.4-0.2,12.6c0.2,0,0.4,0,0.5,0.1c0.2,0,0.3,0,0.5,0
				c2,0,3.6-0.6,4.7-1.7C361.6,80.1,362.2,78.5,362.2,76.3z"/>
			<path id="XMLID_255_" class="st0" d="M376.4,80.4c0-1.3,0-2.5,0-3.6c0-1.1,0-2.2-0.1-3.2c0-1-0.1-2-0.1-3c0-1-0.1-2-0.2-3
				c0.5,0.1,1.1,0.1,1.7,0.1c0.6,0,1.3,0.1,2.1,0.1c0.8,0,1.5,0,2.1-0.1c0.6,0,1.2-0.1,1.7-0.1c-0.1,1-0.1,2-0.2,3c0,1-0.1,2-0.1,3
				c0,1-0.1,2.1-0.1,3.2c0,1.1,0,2.3,0,3.6v6.3c0,1.3,0,2.5,0,3.6c0,1.1,0,2.2,0.1,3.2c0,1,0.1,2,0.1,3c0,1,0.1,2,0.2,3
				c-0.5-0.1-1.1-0.1-1.7-0.2c-0.6,0-1.3-0.1-2.1-0.1c-0.8,0-1.4,0-2.1,0.1c-0.6,0-1.2,0.1-1.7,0.2c0.1-1,0.1-2,0.2-3
				c0-1,0.1-2,0.1-3c0-1,0-2.1,0.1-3.2c0-1.1,0-2.3,0-3.6V80.4z"/>
			<path id="XMLID_252_" class="st0" d="M391.6,80.4c0-1.3,0-2.5,0-3.6c0-1.1,0-2.2-0.1-3.2c0-1-0.1-2-0.1-3c0-1-0.1-2-0.2-3
				c0.5,0.1,1.1,0.1,1.7,0.1c0.6,0,1.3,0.1,2.1,0.1c1,0,2.2,0,3.4-0.1c1.3-0.1,2.9-0.1,5-0.1c2.6,0,5,0.2,7.2,0.7
				c2.2,0.5,4,1.3,5.6,2.4c1.6,1.1,2.8,2.7,3.7,4.6c0.9,1.9,1.3,4.4,1.3,7.2c0,2.6-0.4,4.9-1.3,6.9c-0.8,2.1-2,3.8-3.5,5.3
				c-1.5,1.5-3.2,2.6-5.1,3.4c-1.9,0.8-4,1.2-6.1,1.2c-2.3,0-4.3,0-5.9-0.1c-1.6-0.1-3-0.1-4.3-0.1c-0.8,0-1.4,0-2.1,0.1
				c-0.6,0-1.2,0.1-1.7,0.2c0.1-1,0.1-2,0.2-3c0-1,0.1-2,0.1-3c0-1,0-2.1,0.1-3.2c0-1.1,0-2.3,0-3.6V80.4z M398.4,74.4v18.4
				c0,0.9,0,1.7,0,2.4c0,0.7,0,1.2,0,1.4c0.5,0,1,0.1,1.7,0.1c0.6,0,1.4,0,2.4,0c1.7,0,3.3-0.3,4.7-0.9c1.4-0.6,2.6-1.5,3.6-2.7
				c1-1.2,1.7-2.7,2.3-4.5c0.5-1.8,0.8-3.9,0.8-6.3c0-1.9-0.2-3.6-0.7-5.1c-0.5-1.5-1.2-2.8-2.1-3.9c-0.9-1.1-2-1.9-3.3-2.4
				c-1.3-0.6-2.7-0.8-4.3-0.8c-1.1,0-2,0-2.7,0.1c-0.7,0-1.4,0.1-2.1,0.1c0,0.2,0,0.7,0,1.4C398.4,72.6,398.4,73.5,398.4,74.4z"/>
			<path id="XMLID_250_" class="st0" d="M427.1,80.4c0-1.3,0-2.5,0-3.6c0-1.1,0-2.2-0.1-3.2c0-1-0.1-2-0.1-3c0-1-0.1-2-0.2-3
				c1.4,0,2.8,0.1,4.1,0.1s2.7,0.1,4.1,0.1c1.2,0,2.2,0,3.3,0c1,0,2,0,2.8,0c0.8,0,1.6,0,2.2-0.1s1.1-0.1,1.4-0.1
				c-0.1,0.3-0.1,0.6-0.1,0.8c0,0.3,0,0.7,0,1.1c0,0.5,0,0.9,0,1.2c0,0.3,0.1,0.6,0.1,0.9c-0.9-0.1-1.9-0.1-2.9-0.2
				c-1.1-0.1-2.1-0.1-3.1-0.2c-1-0.1-1.9-0.1-2.7-0.1c-0.8,0-1.4,0-1.7,0c-0.1,1.7-0.2,3.4-0.2,5c0,1.7,0,3.4,0,5
				c2,0,3.8-0.1,5.4-0.1c1.6-0.1,3.3-0.1,5.1-0.2c-0.1,0.5-0.2,0.9-0.2,1.2c0,0.3,0,0.6,0,0.9c0,0.3,0,0.5,0.1,0.8
				c0,0.3,0.1,0.6,0.2,1.1c-3.5-0.3-7-0.4-10.5-0.4c0,1,0,2,0,3c0,1,0,2,0,3c0,2,0,3.9,0.1,5.8c1.8,0,3.5,0,5.3-0.1
				c1.7-0.1,3.5-0.3,5.3-0.5c-0.1,0.4-0.1,0.7-0.1,0.9c0,0.3,0,0.7,0,1.1c0,0.5,0,0.9,0,1.2c0,0.3,0.1,0.6,0.1,0.8
				c-0.8,0-1.9-0.1-3.1-0.1c-1.2-0.1-2.9-0.1-5-0.1c-1.9,0-3.4,0-4.6,0c-1.2,0-2.1,0-2.8,0.1c-0.7,0-1.2,0-1.6,0.1
				c-0.4,0-0.7,0-0.9,0.1c0.1-1,0.1-2,0.2-3c0-1,0.1-2,0.1-3c0-1,0-2.1,0.1-3.2c0-1.1,0-2.3,0-3.6V80.4z"/>
		</g>
	</g>
	<g id="XMLID_19_">
		<path id="XMLID_165_" class="st0" d="M331.9,39.7c10.4,0,20.5,0,30.1,0c-1.4-4.3-2.9-8.5-4.2-12.8c-1.6-5.3-5.1-7.3-10.7-6
			c-1.5,0.3-3,0.8-4.7,1.2c-0.5-1.6-1-3.2-1.4-4.9c-0.1-0.4,0.5-1.2,0.9-1.3c3.9-0.7,7.8-1.8,11.7-1.7c5.9,0.2,9.5,4.2,10.6,10.5
			c0.5,2.7,0.8,5.5,1.5,8.2c0.4,1.5,1,3.3,2.1,4.3c2.9,2.5,2.7,5.5,2.4,9.1c-0.9,0-1.8,0-2.7,0c-16.2,0-32.5,0-48.7,0
			c-6.1,0-11.3-1.8-14.3-7.4c-3.2-6-2.5-12,1-17.7c4.7-7.5,14-9.6,20.8-4.8c4.3,3,5.4,7.6,5.6,12.4C332,32.5,331.9,36.1,331.9,39.7z
			 M325.8,40.1c0-3.9,0.2-7.3-0.1-10.7c-0.4-5-2.6-7.9-6.3-8.8c-4.8-1.1-9.5,1.9-10.8,6.9c-1.4,5.5,1.2,10.8,6.2,11.7
			C318.3,40,321.9,39.9,325.8,40.1z"/>
		<path id="XMLID_164_" class="st0" d="M175.3,20.8c0-2.6,0-4.6,0-7.1c4.4,0.3,8.7,0.2,12.8,0.9c6.1,1.1,9.6,6.4,9.9,13.7
			c0.1,1.8,0.2,3.6,0.5,5.3c0.5,3.3,2.7,5.7,6,5.8c4.8,0.2,9.6,0.1,14.7,0.1c0-7.2,0-14.7,0-22.2c2.2,0,4.1,0,6.1,0
			c0,9.6,0,19.2,0,28.9c-7.2,0-14.2,0.1-21.2-0.1c-3.2-0.1-5.3-2.3-6.6-5.7c-2.5,5.1-6.7,6-11.4,5.9c-5-0.1-10.1,0-15.3,0
			c0-2.2,0-4.1,0-6.5c2.4,0,4.7,0,6.9,0c3.6-0.1,7.1-0.2,10.7-0.3c2.2-0.1,3.3-1.5,3.3-3.5c0.1-2.9,0-5.9-0.4-8.8
			c-0.6-4.1-3.1-6.3-7.3-6.5C181.4,20.6,178.4,20.8,175.3,20.8z"/>
		<path id="XMLID_161_" class="st0" d="M382.3,63.4c0-0.1-0.1-0.1-0.1-0.2c0.1-6.1,0.1-6.1,6.3-5.9c2.1,0.1,4.2-0.2,6.2-0.6
			c4.7-1.1,7.4-5,7.1-10.3c-2.6,0-5.2,0.3-7.8-0.1c-2.9-0.4-5.9-0.9-8.4-2.3c-6.6-3.8-8.7-11.5-5.6-19.6c2.7-7.2,9.1-11.2,16.1-10.3
			c7,1,11.6,6,11.8,13.1c0.2,7.1,0.1,14.1,0,21.2c-0.1,7-4.7,12.8-11.6,14.1c-4.6,0.9-9.3,1-14,1.4
			C382.3,63.8,382.3,63.6,382.3,63.4z M401.8,40.1c0-4.2,0.3-7.9-0.1-11.6c-0.3-3.5-1.9-6.6-5.7-7.7c-4.7-1.4-9.5,1.4-11.1,6.6
			c-1.6,5.3,0.9,10.9,5.9,11.9C394.4,40,398.2,39.9,401.8,40.1z"/>
		<path id="XMLID_160_" class="st0" d="M243.8,17.3c2.1,0,4,0,6.2,0c0,1.5,0,2.8,0,4.1c0.1,3.7,0.1,7.4,0.2,11.2
			c0.1,4,2.3,6.7,6.3,7c4.3,0.3,8.7,0.1,13.3,0.1c0-7.2,0-14.7,0-22.3c2.3,0,4.2,0,6.3,0c0,9.6,0,19.1,0,28.8
			c-0.6,0.1-1.2,0.2-1.8,0.2c-5,0-10.1,0-15.1,0c-3.7,0-7-0.7-8.9-4.4c-0.2,0.1-0.4,0.1-0.6,0.2c0,2.2,0.3,4.4-0.1,6.5
			c-0.5,2.8-1.2,5.6-2.6,8.1c-2.4,4.4-6.6,6.1-11.6,5.9c-1.5-0.1-2.9-0.3-4.6-0.5c0.2-2.1,0.4-4.2,0.5-6.3c1.5,0,2.7,0,3.9,0
			c6,0.2,8.3-1.9,8.3-7.9c0.1-9.3,0-18.6,0-28C243.8,19.1,243.8,18.3,243.8,17.3z"/>
		<path id="XMLID_159_" class="st0" d="M444.4,46.2c-9.8,0-19,0-28.4,0c0-2.1,0-4.1,0-6.3c7.2,0,14.3,0,21.6,0
			c0-4.3,0.4-8.4-0.1-12.5c-0.5-4.4-3.1-6.3-7.6-6.7c-1.5-0.1-3.1-0.1-4.7-0.2c-1.5,0-2.9,0-4.6,0c0-2.2,0-4.2,0-6.5
			c5.1-0.2,10.2-0.6,15.1,1c4.6,1.5,7.3,5.1,7.7,9.6C444.3,31.8,444.2,38.9,444.4,46.2z"/>
		<path id="XMLID_157_" class="st0" d="M224,54.9c1.9,0,3.5,1.5,3.5,3.3c0,1.9-1.5,3.2-3.7,3.2c-1.9-0.1-3.2-1.4-3.2-3.2
			C220.5,56.4,222.1,54.9,224,54.9z"/>
		<path id="XMLID_156_" class="st0" d="M272.6,54.9c1.9,0,3.4,1.5,3.4,3.3c0,2-1.4,3.2-3.5,3.1c-1.8,0-3.4-1.5-3.4-3.1
			C269.1,56.6,270.8,54.9,272.6,54.9z"/>
		<path id="XMLID_155_" class="st0" d="M217.5,58.2c0,1.7-1.6,3.2-3.6,3.2c-1.9,0-3.4-1.4-3.5-3c-0.1-1.7,1.6-3.3,3.5-3.4
			C215.7,54.9,217.4,56.5,217.5,58.2z"/>
		<path id="XMLID_154_" class="st0" d="M312.6,6.5c-1.8,0-3.4-1.6-3.4-3.2c0-1.7,1.7-3.3,3.5-3.3c1.9,0,3.4,1.5,3.4,3.3
			C316.1,5.2,314.6,6.5,312.6,6.5z"/>
		<path id="XMLID_153_" class="st0" d="M322.7,6.4c-2,0-3.3-1.2-3.4-3c0-1.8,1.5-3.4,3.4-3.4c1.9,0,3.6,1.5,3.6,3.3
			C326.3,5.1,324.8,6.4,322.7,6.4z"/>
	</g>
	<g id="XMLID_4_">
		<g id="XMLID_2243_">
			<g id="XMLID_2263_">
				<g id="XMLID_175_">
					<path id="XMLID_190_" class="st1" d="M176.8,115.7c0-0.6,0-1.2,0-1.7c0-0.5,0-0.9-0.1-1.1c-0.3,0-0.7,0-1.2,0
						c-0.5,0-0.9,0-1.5,0.1c-0.5,0-1.1,0.1-1.6,0.1c-0.5,0-1,0.1-1.5,0.1c0-0.2,0.1-0.5,0.1-0.7c0-0.2,0-0.5,0-0.7
						c0-0.2,0-0.5,0-0.7c0-0.2-0.1-0.5-0.1-0.7c0.7,0,1.4,0,1.9,0c0.6,0,1.2,0,1.8,0c0.6,0,1.2,0,1.9,0s1.5,0,2.5,0c1,0,1.8,0,2.5,0
						c0.7,0,1.4,0,1.9,0c0.6,0,1.1,0,1.7,0c0.5,0,1.2,0,1.8,0c0,0.2-0.1,0.5-0.1,0.7c0,0.2-0.1,0.5-0.1,0.7c0,0.2,0,0.5,0.1,0.7
						l0.1,0.7c-0.4-0.1-0.9-0.1-1.4-0.1c-0.5,0-1-0.1-1.6-0.1c-0.5,0-1-0.1-1.5-0.1c-0.5,0-0.8,0-1.2,0c0,0.2-0.1,0.6-0.1,1.1v9.5
						c0,0.9,0,1.7,0,2.4c0,0.8,0,1.5,0,2.2c0,0.7,0,1.4,0.1,2c0,0.7,0.1,1.3,0.1,2c-0.3,0-0.7-0.1-1.1-0.1c-0.4,0-0.9,0-1.4,0
						c-0.5,0-1,0-1.4,0c-0.4,0-0.8,0.1-1.1,0.1c0-0.7,0.1-1.4,0.1-2c0-0.7,0.1-1.3,0.1-2c0-0.7,0-1.4,0-2.2c0-0.8,0-1.6,0-2.4V115.7
						z"/>
					<path id="XMLID_187_" class="st1" d="M187.9,121.4c0-1.6,0.3-3,0.9-4.4c0.6-1.4,1.4-2.6,2.4-3.6c1-1,2.3-1.8,3.8-2.4
						c1.5-0.6,3.1-0.9,5-0.9c1.6,0,3.2,0.2,4.7,0.7c1.5,0.5,2.7,1.2,3.8,2.1c1.1,0.9,1.9,2.1,2.5,3.5c0.6,1.4,0.9,3.1,0.9,5
						c0,1.5-0.3,3-0.9,4.4c-0.6,1.4-1.4,2.6-2.5,3.6c-1.1,1-2.3,1.8-3.8,2.4c-1.5,0.6-3.1,0.9-4.8,0.9c-1.7,0-3.2-0.2-4.7-0.7
						c-1.4-0.4-2.7-1.1-3.8-2c-1.1-0.9-1.9-2.1-2.6-3.5C188.2,125,187.9,123.4,187.9,121.4z M206.7,120.7c0-1.4-0.2-2.6-0.5-3.6
						c-0.3-1.1-0.8-2-1.4-2.7c-0.6-0.8-1.3-1.3-2.2-1.8c-0.8-0.4-1.8-0.6-2.8-0.6c-1.1,0-2,0.3-2.9,0.8s-1.6,1.2-2.1,2.1
						c-0.6,0.9-1,1.9-1.3,3.1c-0.3,1.2-0.5,2.4-0.5,3.8c0,1.7,0.2,3.1,0.5,4.2c0.4,1.1,0.8,2.1,1.4,2.8c0.6,0.7,1.3,1.2,2.1,1.5
						c0.8,0.3,1.6,0.5,2.5,0.5c0.9,0,1.8-0.2,2.7-0.6c0.9-0.4,1.6-1,2.2-1.8c0.6-0.8,1.2-1.9,1.5-3.1
						C206.5,123.9,206.7,122.4,206.7,120.7z"/>
					<path id="XMLID_185_" class="st1" d="M225.3,132.6c-1.3,0-2.6-0.2-3.7-0.5c-1.2-0.3-2.2-0.8-3-1.5c-0.9-0.7-1.5-1.5-2-2.5
						c-0.5-1-0.7-2.3-0.7-3.8c0-0.8,0-1.6,0-2.2c0-0.7,0-1.3,0-1.8c0-0.6,0-1.1,0-1.6c0-0.5,0-1.1,0-1.6c0-1.7,0-3.1,0-4.1
						c0-1.1,0-1.8-0.1-2.4c0.4,0,0.8,0.1,1.3,0.1c0.4,0,0.9,0,1.3,0c0.4,0,0.9,0,1.3,0c0.4,0,0.9-0.1,1.3-0.1c-0.1,1-0.2,2-0.2,2.9
						c-0.1,0.9-0.1,1.8-0.1,2.7s-0.1,1.8-0.1,2.6s0,1.8,0,2.7c0,1.9,0.1,3.5,0.4,4.6c0.3,1.2,0.7,2.1,1.2,2.7c0.5,0.6,1.2,1.1,2,1.3
						c0.8,0.2,1.7,0.3,2.7,0.3c1.2,0,2.2-0.3,2.9-0.9c0.7-0.6,1.2-1.5,1.6-2.5c0.4-1,0.6-2.2,0.7-3.6c0.1-1.3,0.1-2.8,0.1-4.2
						c0-1.4,0-2.9-0.1-4.3c0-1.4-0.1-2.9-0.2-4.3c0.6,0.1,1.1,0.1,1.6,0.1c0.3,0,0.5,0,0.8,0c0.2,0,0.5-0.1,0.8-0.1
						c0,0.5-0.1,1.1-0.1,1.8c-0.1,0.8-0.1,1.7-0.1,2.7c0,1-0.1,2.1-0.1,3.4c0,1.2,0,2.5,0,3.9c0,3.6-0.8,6.3-2.3,7.9
						C230.6,131.8,228.3,132.6,225.3,132.6z"/>
					<path id="XMLID_182_" class="st1" d="M245.1,122.2h-0.3v1.3c0,0.9,0,1.7,0,2.4c0,0.8,0,1.5,0.1,2.2c0,0.7,0.1,1.4,0.1,2
						c0,0.7,0.1,1.3,0.1,2c-0.4,0-0.7-0.1-1.2-0.1c-0.4,0-0.9,0-1.4,0c-0.5,0-1,0-1.4,0c-0.4,0-0.8,0.1-1.2,0.1c0-0.7,0.1-1.4,0.1-2
						c0-0.7,0.1-1.3,0.1-2c0-0.7,0-1.4,0-2.2c0-0.8,0-1.6,0-2.4v-4.3c0-0.9,0-1.7,0-2.4c0-0.7,0-1.5,0-2.2c0-0.7,0-1.4-0.1-2
						c0-0.7-0.1-1.3-0.1-2c0.4,0,0.7,0.1,1.2,0.1c0.4,0,0.9,0,1.4,0c0.6,0,1.2,0,1.9-0.1c0.7,0,1.6-0.1,2.7-0.1c0.8,0,1.5,0,2,0.1
						c0.6,0,1,0.1,1.5,0.2c0.4,0.1,0.8,0.2,1.1,0.3c0.3,0.1,0.6,0.3,0.9,0.5c0.6,0.5,1.1,1,1.5,1.7c0.4,0.7,0.5,1.5,0.5,2.4
						c0,1.5-0.4,2.8-1.3,3.7c-0.8,1-2,1.6-3.6,2c1,1.8,2.1,3.6,3.2,5.3l3.5,5.3c-0.5,0-1-0.1-1.4-0.1c-0.5,0-0.9,0-1.4,0
						c-0.5,0-1,0-1.4,0c-0.5,0-1,0.1-1.4,0.1L245.1,122.2z M249.7,116.5c0-0.9-0.1-1.6-0.3-2.2c-0.2-0.5-0.5-1-0.9-1.2
						c-0.4-0.3-0.9-0.5-1.5-0.5c-0.6-0.1-1.3-0.1-2.2-0.1c-0.1,2.9-0.1,5.7-0.1,8.5c0.1,0,0.3,0,0.4,0c0.1,0,0.2,0,0.3,0
						c1.4,0,2.5-0.4,3.2-1.1C249.4,119.1,249.7,118,249.7,116.5z"/>
					<path id="XMLID_180_" class="st1" d="M259.4,119.2c0-0.9,0-1.7,0-2.4c0-0.7,0-1.5,0-2.2c0-0.7,0-1.4-0.1-2c0-0.7-0.1-1.3-0.1-2
						c0.4,0,0.7,0.1,1.2,0.1c0.4,0,0.9,0,1.4,0c0.5,0,1,0,1.4,0c0.4,0,0.8-0.1,1.2-0.1c0,0.7-0.1,1.4-0.1,2c0,0.7-0.1,1.3-0.1,2
						c0,0.7,0,1.4,0,2.2c0,0.7,0,1.6,0,2.4v4.3c0,0.9,0,1.7,0,2.4c0,0.8,0,1.5,0,2.2c0,0.7,0,1.4,0.1,2c0,0.7,0.1,1.3,0.1,2
						c-0.4,0-0.7-0.1-1.2-0.1c-0.4,0-0.9,0-1.4,0c-0.5,0-1,0-1.4,0c-0.4,0-0.8,0.1-1.2,0.1c0-0.7,0.1-1.4,0.1-2c0-0.7,0.1-1.3,0.1-2
						c0-0.7,0-1.4,0-2.2c0-0.8,0-1.6,0-2.4V119.2z"/>
					<path id="XMLID_178_" class="st1" d="M279,114.8c-0.7-1.8-1.9-2.7-3.8-2.7c-1,0-1.8,0.3-2.4,0.8s-0.9,1.2-0.9,2
						c0,0.8,0.2,1.4,0.7,1.9c0.5,0.5,1.1,0.9,1.8,1.3c0.7,0.4,1.5,0.8,2.3,1.1c0.8,0.4,1.6,0.8,2.3,1.3c0.7,0.5,1.3,1.2,1.8,1.9
						c0.5,0.8,0.7,1.7,0.7,2.9c0,1-0.2,2-0.6,2.9c-0.4,0.9-1,1.6-1.7,2.2c-0.7,0.6-1.6,1.1-2.6,1.5c-1,0.3-2.1,0.5-3.4,0.5
						c-1.1,0-2.2-0.1-3-0.4s-1.6-0.6-2-0.9c0.2-0.7,0.4-1.4,0.5-2c0.1-0.6,0.3-1.3,0.4-2h0.6c0.1,0.5,0.2,0.9,0.4,1.3
						c0.2,0.4,0.5,0.8,0.9,1.1c0.4,0.3,0.8,0.6,1.3,0.7c0.5,0.2,1.1,0.3,1.7,0.3c1.2,0,2.2-0.3,2.8-0.9c0.6-0.6,0.9-1.4,0.9-2.3
						c0-0.8-0.2-1.4-0.7-1.9c-0.5-0.5-1-0.9-1.7-1.3c-0.7-0.4-1.4-0.8-2.3-1.1c-0.8-0.4-1.6-0.8-2.3-1.3c-0.7-0.5-1.3-1.2-1.7-1.9
						c-0.5-0.8-0.7-1.7-0.7-2.9c0-1.1,0.2-2.1,0.6-2.9c0.4-0.8,0.9-1.5,1.6-2.1s1.4-1,2.2-1.3c0.8-0.3,1.7-0.4,2.7-0.4
						c1.1,0,2.1,0.1,3,0.4c0.8,0.3,1.6,0.7,2.2,1.1c-0.2,0.5-0.4,0.9-0.5,1.4c-0.1,0.5-0.3,1-0.5,1.7H279z"/>
					<path id="XMLID_176_" class="st1" d="M287.9,118c-0.3,2.4-0.6,4.8-0.7,7.1c-0.2,2.4-0.3,4.7-0.5,7.1c-0.2,0-0.5-0.1-0.7-0.1
						c-0.3,0-0.5,0-0.7,0c-0.3,0-0.5,0-0.7,0c-0.2,0-0.5,0.1-0.7,0.1c0.7-3.6,1.3-7.2,1.8-10.8c0.5-3.6,1-7.2,1.5-10.8
						c0.2,0,0.4,0.1,0.6,0.1c0.2,0,0.4,0,0.7,0c0.4,0,0.8,0,1.3-0.1c0.6,1.2,1.1,2.5,1.8,3.8c0.6,1.3,1.2,2.6,1.8,3.9
						c0.6,1.3,1.2,2.5,1.8,3.8c0.6,1.2,1.2,2.4,1.8,3.5c1.2-2.3,2.5-4.8,3.7-7.4c1.2-2.6,2.4-5.1,3.6-7.6c0.5,0.1,0.9,0.1,1.4,0.1
						c0.4,0,0.8,0,1.3-0.1c0.2,1.8,0.4,3.7,0.7,5.8c0.2,2.1,0.5,4.1,0.7,6.1c0.2,2,0.5,3.8,0.7,5.5c0.2,1.7,0.4,3.1,0.6,4.2
						c-0.4,0-0.8-0.1-1.3-0.1c-0.4,0-0.8,0-1.3,0c-0.4,0-0.9,0-1.3,0c-0.4,0-0.9,0.1-1.3,0.1c-0.1-2.2-0.3-4.6-0.5-7.1
						c-0.2-2.5-0.5-5-0.7-7.5h-0.1c-1.2,2.5-2.4,4.9-3.5,7.3c-1.2,2.4-2.3,4.8-3.4,7.3c-0.1,0-0.2,0-0.3,0c-0.1,0-0.2,0-0.3,0
						c-0.1,0-0.2,0-0.3,0c-0.1,0-0.2,0-0.3,0c-1.1-2.4-2.3-4.8-3.4-7.1C290.3,122.7,289.2,120.4,287.9,118L287.9,118z"/>
				</g>
			</g>
		</g>
		<g id="XMLID_3_">
			<path id="XMLID_169_" class="st1" d="M429.7,125.1c3.8,0,7.3,0,11.1,0c0-2.3,0-4.4,0-6.6c0-1.9,0-3.8,0-5.6c0-0.4,0.4-1,0.7-1
				c1-0.1,2,0,3,0c0,5.8,0,11.4,0,17.2c-4.9,0-9.7,0-14.6,0c-0.2,1.2-0.3,2.2-0.6,3.2c-1.1,4.2-4.3,6.7-9.1,7c-1.9,0.1-3.7,0-5.5,0
				c-0.1-0.2-0.1-0.2-0.1-0.3c0.2-4.1-0.7-3.6,3.6-3.4c1.3,0.1,2.8-0.1,4.1-0.5c2.6-0.7,4.1-3.1,3.9-6c-1.6,0-3.2,0-4.8,0
				c-4.2-0.1-7.4-2.3-8.4-6c-1.2-4.1-0.2-7.7,2.8-10.7c2.6-2.6,5.8-3.1,9.2-1.8c3.4,1.3,4.7,4.2,4.8,7.6
				C429.8,120.5,429.7,122.8,429.7,125.1z M426.1,125.3c0-2.5,0.2-4.8-0.1-7c-0.3-2.9-2.3-4.6-4.8-4.6c-2.6,0-4.9,2.1-5.3,4.7
				c-0.5,3.3,0.9,5.9,3.8,6.5C421.8,125.3,423.9,125.2,426.1,125.3z"/>
			<path id="XMLID_158_" class="st1" d="M394.9,138.3c0.1-1.2,0.3-2.3,0.4-3.5c0.9,0,1.8,0,2.6,0c3.1-0.1,4.4-1.4,4.5-4.5
				c0.1-5.5,0.1-10.9,0.1-16.4c0-2.3-0.3-2.1,2.1-2.1c0.5,0,1,0,1.6,0c0,0.6,0.1,1,0.1,1.4c0,5.1,0,10.3,0,15.4
				c0,1.3-0.2,2.6-0.5,3.8c-1.1,4.4-4.3,6.6-8.7,6.2C396.4,138.5,395.8,138.4,394.9,138.3z"/>
			<path id="XMLID_152_" class="st1" d="M439.5,107.3c-1.2,0-2.1-0.7-2.1-1.9c0-1,0.9-1.9,2-1.9c1.1,0,2.1,0.9,2.2,1.9
				C441.6,106.5,440.7,107.3,439.5,107.3z"/>
			<path id="XMLID_151_" class="st1" d="M445.4,107.3c-1.2,0-2.1-0.8-2-1.9c0-1,0.9-1.8,2-1.8c1.1,0,2,0.8,2.1,1.9
				C447.4,106.6,446.6,107.3,445.4,107.3z"/>
			<path id="XMLID_7_" class="st1" d="M387.9,111.9c0,4.5,0,8.8,0,13.2c-1.4,0-2.7,0.1-3.9,0c-3.2-0.2-4.6-1.7-4.6-5
				c0-1.8,0-3.7,0-5.6c-1.2,0-2.4,0-3.8,0c0,2.5,0,4.9,0,7.4c-0.1,2.7-0.7,3.3-3.4,3.3c-3.4,0-4.9-1.4-5.2-4.8
				c-0.1-1.3-0.1-2.7-0.2-4c-1.2,0-2.4,0-3.6,0c0,2,0,3.8,0,5.6c0,2.4-0.6,3.1-3,3.2c-2.5,0.1-5,0.1-7.6,0c-3.2-0.1-4.6-1.6-4.9-4.8
				c0-0.6,0-1.2,0-1.8c-0.1-5.9-5.9-10.1-11.5-8.3c-4,1.3-6.5,4.8-6.6,9.3c0,1.8,0,3.5,0,5.3c-1.2,0.1-2.2,0.2-3.2,0.3
				c-3.9,0.3-6.4,3-6.5,7c0,2.1,0,4.2,0,6.3h3.6c0-1.6,0-3.3,0-4.9c0-3.3,1.1-4.5,4.4-4.5c3.3-0.1,6.7,0,10,0c3.3,0,6.4-0.6,8.6-3.4
				c0,0,0.2,0,0.3,0c1,2.6,3.2,3.4,5.8,3.4c2.1,0,4.1-0.1,6.2,0c3,0.1,5.8-0.2,7.4-3.7c1.2,3.2,3.5,3.7,6.2,3.7
				c2.7,0.1,5-0.6,6.1-2.9c1.1,0.9,2.1,2.3,3.2,2.5c3.2,0.5,6.4,0.4,9.7,0.6c0-6,0-11.6,0-17.3C390.2,111.9,389.1,111.9,387.9,111.9
				z M338.4,125.2c-1.7,0-3.4,0-5.4,0c0.2-2.6,0.1-5.1,0.6-7.5c0.5-2.7,3-4.2,5.8-4c2.9,0.3,4.6,2.1,4.8,5.2c0,0.1,0,0.3,0,0.4
				C344.2,124,343,125.2,338.4,125.2z"/>
		</g>
	</g>
</g>
</svg>
